<svg width="5169" height="1024" viewBox="0 0 5169 1024" fill="none" xmlns="http://www.w3.org/2000/svg">
<g clip-path="url(#clip0_32_606)">
<path d="M376.946 404.297H313.459V467.783H376.946V404.297Z" fill="#131313"/>
<path d="M249.943 404.297H186.457V467.783H249.943V404.297Z" fill="#131313"/>
<path d="M376.946 277.248H313.459V340.734H376.946V277.248Z" fill="#131313"/>
<path d="M313.459 467.703H249.973V531.189H313.459V467.703Z" fill="#131313"/>
<path d="M313.459 340.773H249.973V404.26H313.459V340.773Z" fill="#131313"/>
<path d="M313.429 277.242V213.756H249.942V277.242H313.429Z" fill="#131313"/>
<path d="M249.943 150.273H186.457V213.76H249.943V150.273Z" fill="#131313"/>
<path d="M454.503 17.2734H186.457V86.7634H313.429V147.078H376.915H438.831C585.693 147.078 630.86 224.019 630.86 401.054C630.86 578.089 586.247 654.414 438.831 654.414H376.915V594.745H313.429V654.476H376.915V717.962H313.429V658.232H249.943V721.102H186.457V779.539H454.503C682.339 779.539 794.009 640.497 794.009 397.021C794.009 153.544 683.447 17.2734 454.503 17.2734Z" fill="#131313"/>
<path d="M249.943 531.227H186.457V594.405H249.943V531.227Z" fill="#131313"/>
<path d="M63.4862 612.336H0V675.822H63.4862V612.336Z" fill="#131313"/>
<path d="M179.898 277.248H116.412V340.734H179.898V277.248Z" fill="#131313"/>
<path d="M186.487 612.336H123V675.822H186.487V612.336Z" fill="#131313"/>
<path d="M148.156 712.695H84.6694V776.182H148.156V712.695Z" fill="#131313"/>
<path d="M1372.07 238.302C1324.25 187.685 1256.58 160.961 1176.31 160.961C1091.46 160.961 1019.38 190.61 967.903 246.677C916.055 303.143 888.684 382.639 888.684 476.606C888.684 565.462 916.64 641.572 969.565 696.745C1022.74 752.165 1096.48 781.475 1182.78 781.475C1299.56 781.475 1396.11 719.559 1441.03 615.802L1442.39 612.692L1326.68 575.253L1325.51 577.655C1296.82 637.169 1245.22 668.604 1176.31 668.604C1128.53 668.604 1090.41 654.195 1063.07 625.777C1036.35 598.006 1020.46 557.58 1015.81 505.548H1449.75L1449.93 502.653C1456.3 390.398 1429.39 298.986 1372.07 238.302ZM1019.26 412.104C1033.98 317.367 1089.7 267.336 1180.62 267.336C1271.54 267.336 1315.78 314.689 1328.04 412.104H1019.26Z" fill="#131313"/>
<path d="M2028.73 594.096C2028.73 651.209 2006.47 698.716 1964.35 731.536C1922.38 764.203 1861.57 781.475 1788.51 781.475C1715.45 781.475 1658.15 765.034 1613.88 733.907C1569.39 702.626 1540.76 656.32 1531.09 600.007L1530.57 596.928L1651.81 577.655L1652.46 580.456C1666.37 640.402 1720.04 676.178 1796.06 676.178C1864.99 676.178 1906.16 647.083 1906.16 598.406C1906.16 555.795 1887.44 544.895 1752.15 508.688C1600.55 468.324 1549.38 425.435 1549.38 338.642C1549.38 285.932 1571.33 241.196 1612.83 209.268C1653.97 177.648 1711.36 160.961 1778.81 160.961C1914.32 160.961 2011.15 229.25 2025.46 335.009L2025.86 337.934L1904.49 359.455L1904.03 356.346C1895.72 302.312 1850.4 269.491 1779.74 266.258C1738.64 264.965 1705.29 274.633 1685.86 293.475C1674.47 304.498 1668.71 317.86 1668.71 333.254C1668.71 367.553 1690.82 383.809 1829.12 418.662C1976.48 456.563 2028.73 502.469 2028.73 594.096Z" fill="#131313"/>
<path d="M2306.72 544.025C2306.5 582.973 2306.35 611.083 2318.17 630.233C2344.77 676.755 2410.11 673.615 2476.76 663.3L2480.3 662.746V764.78L2477.84 765.273C2444.47 771.83 2413.28 775.033 2384.7 775.033C2299.76 775.063 2237.81 746.615 2209.36 692.55C2187.5 650.739 2187.9 609.944 2188.37 558.25C2188.46 550.368 2188.52 542.209 2188.52 533.742V310.616H2076.42V213.94H2188.52V75.9453H2306.78V213.94H2480.3V310.616H2306.78V527.276C2306.78 533.064 2306.75 538.637 2306.72 544.025Z" fill="#131313"/>
<path d="M2915.75 177.663V289.826L2911.93 288.81C2877.63 280.005 2827.14 280.066 2788.31 306.698C2739.82 337.148 2715.28 391.367 2715.28 468V765.326H2595.95V177.14H2702.35V262.116C2716.67 240.256 2733.51 222.738 2751.49 211.038C2792.72 179.849 2856.3 166.487 2913.25 177.17L2915.75 177.663Z" fill="#131313"/>
<path d="M3467.48 248.031C3415.6 191.072 3342.63 160.961 3256.52 160.961C3084.47 160.961 2968.86 285.624 2968.86 471.218C2968.86 656.812 3084.47 781.475 3256.52 781.475C3428.56 781.475 3545.22 656.781 3545.22 471.218C3545.22 381.069 3518.34 303.882 3467.48 248.031ZM3256.52 668.604C3153.65 668.604 3094.66 596.682 3094.66 471.218C3094.66 411.365 3108.3 361.98 3134.04 328.39C3161.84 292.182 3203.04 273.801 3256.52 273.801C3310 273.801 3350.67 291.782 3378.72 327.22C3405.72 361.333 3419.42 409.795 3419.42 471.218C3419.42 596.682 3360.03 668.604 3256.52 668.604Z" fill="#131313"/>
<path d="M4150.19 177.125L4148.62 181.281L3827.74 1024H3713.42L3810.44 759.061L3573.12 177.125H3698.36L3868.66 608.166L4030.42 177.125H4150.19Z" fill="#131313"/>
<path d="M4657.31 238.302C4609.49 187.685 4541.79 160.961 4461.52 160.961C4376.7 160.961 4304.62 190.61 4253.11 246.677C4201.3 303.143 4173.9 382.639 4173.9 476.606C4173.9 565.462 4201.88 641.572 4254.78 696.745C4307.98 752.165 4381.72 781.475 4467.99 781.475C4584.8 781.475 4681.35 719.559 4726.27 615.802L4727.63 612.692L4611.93 575.253L4610.76 577.655C4582.06 637.169 4530.46 668.604 4461.52 668.604C4413.74 668.604 4375.65 654.195 4348.28 625.777C4321.59 598.006 4305.7 557.58 4301.05 505.548H4734.99L4735.14 502.653C4741.55 390.398 4714.64 298.986 4657.31 238.302ZM4304.5 412.104C4319.22 317.367 4374.91 267.336 4465.83 267.336C4556.75 267.336 4601.03 314.689 4613.28 412.104H4304.5Z" fill="#131313"/>
<path d="M5168.43 177.663V289.826L5164.58 288.81C5130.31 280.005 5079.82 280.066 5041 306.698C4992.5 337.148 4967.96 391.367 4967.96 468V765.326H4848.63V177.14H4955.03V262.116C4969.32 240.256 4986.19 222.738 5004.14 211.038C5045.4 179.849 5108.98 166.487 5165.94 177.17L5168.43 177.663Z" fill="#131313"/>
</g>
<defs>
<clipPath id="clip0_32_606">
<rect width="5168.43" height="1024" fill="white"/>
</clipPath>
</defs>
</svg>
