<?xml version="1.0" encoding="UTF-8" standalone="no"?>
<!-- Created with Inkscape (http://www.inkscape.org/) -->

<svg
   width="1280"
   height="391.04001"
   viewBox="0 0 1280 391.04001"
   xmlns="http://www.w3.org/2000/svg">
  <defs
     id="defs1" />
  <g
     id="g1">
    <path
       style="fill:#000000;stroke-width:1.1086"
       d="m 631.3988,366.37124 -0.39477,-0.47568 2.53064,-2.98975 c 1.39185,-1.64437 4.21764,-5.22469 6.27953,-7.95627 2.06189,-2.73159 5.01353,-7.04181 6.55921,-9.57828 1.54566,-2.53648 3.59227,-6.20815 4.54803,-8.15928 0.95575,-1.95113 2.27191,-5.30353 2.9248,-7.44978 0.65289,-2.14624 1.76269,-6.29683 2.46623,-9.22353 0.70354,-2.9267 1.42537,-6.48905 1.60407,-7.91635 0.17871,-1.4273 0.23525,-4.41576 0.12565,-6.64103 l -0.19926,-4.04595 0.47335,-0.57035 c 0.26036,-0.3137 1.25607,-0.96699 2.21272,-1.45177 0.95664,-0.48476 2.43565,-1.52321 3.28668,-2.30766 0.85104,-0.78446 1.95409,-2.24256 2.45125,-3.24022 l 0.90393,-1.81395 v -2.8668 -2.8668 l -0.59867,-0.87712 c -0.32927,-0.48242 -1.32701,-1.74226 -2.2172,-2.79965 -0.89018,-1.05739 -2.32823,-2.37441 -3.19566,-2.9267 l -1.57715,-1.00417 h -1.57445 c -0.86596,0 -2.19676,0.18644 -2.95732,0.41432 l -1.38286,0.41431 -0.39516,-0.39516 -0.39516,-0.39515 2.44636,-2.54745 c 1.34551,-1.4011 3.51296,-3.40325 4.81658,-4.44922 l 2.3702,-1.90178 1.17731,-2.39359 1.1773,-2.3936 -0.0146,-2.13381 -0.0146,-2.1338 -1.71561,-3.29931 c -0.94358,-1.81462 -2.75368,-4.76792 -4.02242,-6.5629 -1.26875,-1.79497 -3.92238,-5.08387 -5.89694,-7.30865 -1.97458,-2.22479 -4.46342,-5.08618 -5.53076,-6.35866 -1.22359,-1.45875 -3.84512,-3.73485 -7.09503,-6.16018 l -5.1544,-3.84659 -2.80184,-1.08276 -2.80182,-1.08278 -0.24486,0.39618 c -0.13467,0.2179 -0.43213,2.58366 -0.66102,5.25724 -0.2289,2.67359 -0.58594,7.25564 -0.79342,10.18234 -0.20749,2.9267 -0.27755,6.83783 -0.15571,8.6914 0.12185,1.85358 0.47086,4.643 0.77556,6.19872 0.30471,1.55571 0.93177,3.68277 1.39349,4.72678 0.49802,1.1261 1.78062,2.87307 3.15324,4.29485 1.2883,1.33445 2.31376,2.71309 2.31376,3.11066 0,0.48056 -0.49293,0.97025 -1.5077,1.49777 -0.82923,0.43108 -1.75914,0.975 -2.06647,1.20871 -0.30733,0.23373 -0.84644,0.86691 -1.19802,1.40706 l -0.63924,0.9821 0.24667,2.18032 c 0.13567,1.19918 0.63261,3.40202 1.10431,4.89521 0.48166,1.52473 1.47077,3.57112 2.25626,4.66806 0.76924,1.07424 2.24816,2.59564 3.28648,3.38088 1.03831,0.78525 2.9693,2.18721 4.29109,3.11546 1.32179,0.92825 3.15762,1.91813 4.07964,2.19971 l 1.67639,0.51198 5.43859,-0.0805 5.43858,-0.0805 0.2933,0.47457 c 0.16132,0.26101 0.21978,0.66615 0.12993,0.90031 -0.0899,0.23414 -0.51409,0.60376 -0.94274,0.82136 -0.42866,0.21759 -2.67636,1.12017 -4.9949,2.0057 -2.31854,0.88554 -5.5113,2.38262 -7.09502,3.32686 -1.58373,0.94423 -4.15661,2.4076 -5.71751,3.25193 -1.56091,0.84433 -4.91331,2.80498 -7.44978,4.35701 -2.53647,1.55201 -7.00435,4.09497 -9.92863,5.651 -2.92428,1.55603 -7.87306,3.86913 -10.99729,5.14024 -3.12423,1.2711 -6.47861,2.62438 -7.45418,3.00729 -0.97556,0.38291 -3.2105,1.43711 -4.96651,2.34266 -1.75602,0.90556 -6.22589,3.67752 -9.93304,6.1599 -3.70715,2.48239 -7.72784,5.35941 -8.93487,6.39337 -1.20703,1.03397 -3.52178,3.01485 -5.1439,4.40197 -1.62211,1.38713 -4.46607,3.56701 -6.31992,4.84418 -1.85384,1.27717 -5.96674,3.6254 -9.13978,5.21828 -3.75985,1.88747 -7.62885,3.50006 -11.10877,4.63011 -2.93679,0.95367 -6.0076,1.78075 -6.82402,1.83795 -0.81642,0.0572 -1.56092,-0.0557 -1.65443,-0.25074 -0.0936,-0.19511 0.86431,-1.01769 2.12851,-1.82795 1.26419,-0.81027 3.87045,-2.6461 5.7917,-4.07964 1.92125,-1.43354 5.76864,-4.84137 8.54976,-7.57295 2.78112,-2.73159 6.29429,-6.53221 7.80705,-8.44581 1.51276,-1.91361 3.62743,-4.86691 4.69928,-6.5629 1.07185,-1.69599 3.12392,-5.47818 4.56015,-8.40487 1.43624,-2.9267 3.18175,-6.82482 3.8789,-8.66249 0.69717,-1.83766 1.739,-5.11024 2.31519,-7.2724 0.57618,-2.16215 1.53814,-6.24593 2.13769,-9.07508 0.59954,-2.82914 1.4047,-7.19336 1.78926,-9.69828 0.38456,-2.50492 1.01803,-8.17207 1.4077,-12.59367 0.38967,-4.42161 0.85975,-13.55234 1.04461,-20.29054 0.18487,-6.73819 0.44352,-13.40699 0.57482,-14.81956 l 0.23869,-2.56829 -2.966,1.2695 c -1.6313,0.69822 -4.11755,1.92468 -5.52501,2.72546 -1.40745,0.80078 -3.64798,2.26881 -4.97896,3.26227 -1.33097,0.99347 -4.18291,3.56233 -6.33761,5.70858 -2.28211,2.27313 -4.68596,5.08708 -5.75799,6.74027 -1.01219,1.56091 -2.06901,3.15729 -2.34849,3.54751 l -0.50814,0.70951 -0.39114,-0.37818 -0.39112,-0.37818 1.0752,-3.6193 c 0.59137,-1.99062 1.68141,-5.02537 2.4223,-6.7439 0.7409,-1.71852 2.37482,-4.83575 3.63092,-6.92716 1.25612,-2.09141 4.41977,-6.78856 7.03035,-10.43811 2.61057,-3.64956 6.88417,-9.48318 9.49688,-12.96362 3.06166,-4.07849 5.31095,-7.48349 6.32728,-9.57828 0.8673,-1.78761 1.91684,-4.60714 2.33233,-6.26561 l 0.75543,-3.01538 0.17624,-6.03077 c 0.10753,-3.67954 -0.0387,-9.21185 -0.37512,-14.19005 -0.30325,-4.4876 -0.79861,-9.56163 -1.1008,-11.27563 -0.30221,-1.71401 -0.88526,-3.83076 -1.2957,-4.70392 -0.50916,-1.08318 -1.03101,-1.65901 -1.64261,-1.81252 l -0.89637,-0.22497 -3.80891,1.87933 c -2.24644,1.1084 -4.0449,1.78877 -4.3842,1.65857 -0.31641,-0.12142 -0.57529,-0.36066 -0.57529,-0.53165 0,-0.17099 0.612,-1.25356 1.36001,-2.4057 0.74801,-1.15215 2.34345,-3.29211 3.54543,-4.75546 1.20199,-1.46335 3.0782,-3.69828 4.16936,-4.96652 1.09117,-1.26823 3.09101,-4.16832 4.44411,-6.44462 1.3531,-2.27631 3.24491,-5.78834 4.20402,-7.80453 0.95912,-2.01618 2.31254,-5.59559 3.0076,-7.95425 0.69505,-2.35865 1.57886,-5.79752 1.96402,-7.64191 0.38516,-1.84439 1.09791,-5.98083 1.58389,-9.19207 0.48598,-3.21126 1.12618,-8.23321 1.42265,-11.15991 0.29648,-2.9267 0.71027,-9.312221 0.91955,-14.190048 0.20927,-4.877829 0.35755,-14.775388 0.32952,-21.994575 -0.0281,-7.219188 -0.0245,-13.764349 0.008,-14.544801 0.0401,-0.969116 0.44507,0.432663 1.27719,4.421388 0.67014,3.212216 1.92378,8.719729 2.78588,12.238917 0.8621,3.519189 2.22767,8.314181 3.03461,10.655539 0.80694,2.341358 2.25734,5.919513 3.22312,7.951455 0.96577,2.031942 2.62391,4.998902 3.68475,6.593243 1.06084,1.594341 3.01625,3.922795 4.34537,5.174346 1.32911,1.251536 3.37581,2.784576 4.54825,3.406726 l 2.13166,1.13121 3.71602,0.22475 c 2.04381,0.12361 4.55412,0.38418 5.57846,0.57901 1.02895,0.19573 1.86245,0.54693 1.86245,0.78477 0,0.23676 -0.51883,0.73518 -1.15294,1.10756 -0.63412,0.3724 -2.13909,1.44993 -3.34437,2.39451 -1.37565,1.0781 -2.46512,2.28281 -2.92669,3.23628 -0.40441,0.83539 -0.73528,1.91957 -0.73528,2.4093 0,0.48973 0.36137,1.2299 0.80303,1.64482 0.44167,0.41492 1.39161,1.00033 2.11097,1.3009 0.75571,0.31576 3.00038,0.63907 5.31643,0.76575 2.47295,0.13526 5.29949,0.0501 7.37862,-0.2224 1.85358,-0.2429 4.44388,-0.53996 5.75624,-0.66012 l 2.3861,-0.21849 3.4673,-3.22599 c 1.90701,-1.7743 4.76095,-4.88724 6.34208,-6.91765 1.58114,-2.03041 5.0553,-6.88441 7.72036,-10.786675 2.66506,-3.902263 5.22635,-7.556147 5.69177,-8.119745 l 0.84619,-1.024723 -0.34644,1.55685 c -0.19053,0.856267 -1.22528,4.341157 -2.29942,7.744196 l -1.95298,6.187347 -0.35596,3.39094 c -0.19578,1.86501 -0.24718,5.13168 -0.11423,7.25927 0.13295,2.12759 0.44434,4.54152 0.69195,5.36429 0.24762,0.82277 0.97943,2.27477 1.62625,3.22668 0.64682,0.95191 4.62327,5.24277 8.83657,9.53526 4.2133,4.29249 8.79398,9.16145 10.1793,10.81991 1.38532,1.65847 3.10799,3.94154 3.82816,5.0735 0.72016,1.13195 2.0782,3.76598 3.01783,5.8534 0.93965,2.08741 2.59574,6.58895 3.6802,10.00343 1.08448,3.41448 2.37089,7.80452 2.85872,9.75565 0.48783,1.95114 1.55162,6.49818 2.36396,10.10454 0.81235,3.60637 1.84483,7.27804 2.29441,8.15928 0.44957,0.88124 1.72646,2.60285 2.83753,3.82581 1.19994,1.32076 1.94111,2.42948 1.8255,2.73078 -0.10709,0.27896 -0.64186,0.73726 -1.18846,1.01842 -0.5466,0.28117 -2.98929,0.76893 -5.42821,1.08391 -2.43891,0.31499 -6.1904,1.04848 -8.33665,1.62997 -2.14624,0.5815 -4.85806,1.55747 -6.02627,2.16882 -1.16821,0.61134 -3.34131,1.89241 -4.82913,2.84681 -1.48782,0.95439 -3.52812,2.60545 -4.534,3.66901 -1.00586,1.06356 -2.12103,2.61872 -2.47813,3.4559 -0.35711,0.83719 -0.84907,2.36025 -1.09323,3.38459 -0.27955,1.17277 -0.63203,1.86245 -0.95182,1.86245 -0.27934,0 -0.5902,-0.27937 -0.6908,-0.62082 -0.10067,-0.34145 -0.60541,-1.48055 -1.12179,-2.53134 l -0.93886,-1.91053 -1.43903,-0.65362 c -0.79146,-0.3595 -1.74428,-0.65713 -2.11737,-0.66142 -0.37307,-0.004 -1.34344,0.38199 -2.15634,0.85839 -0.81291,0.47639 -1.88271,1.4777 -2.37733,2.22513 -0.49463,0.74741 -1.24038,2.02748 -1.65722,2.84457 -0.47923,0.93935 -0.75792,2.1474 -0.75792,3.28531 0,1.20106 0.28583,2.36375 0.85932,3.49547 0.47263,0.93269 1.50075,2.27528 2.28472,2.98355 0.8251,0.74542 1.97806,1.39143 2.73768,1.53394 0.72175,0.13541 2.52721,0.15205 4.01212,0.037 1.48491,-0.11505 3.8173,-0.54938 5.18309,-0.96515 1.36579,-0.41577 4.79801,-1.95665 7.62715,-3.42416 2.82914,-1.46752 6.0219,-3.32464 7.09502,-4.12696 1.07313,-0.80231 3.68034,-2.95279 5.7938,-4.77885 2.30782,-1.99397 4.0436,-3.24299 4.3457,-3.12706 0.27668,0.10621 0.50071,0.47741 0.49787,0.82498 -0.003,0.34758 -0.24405,1.31782 -0.53605,2.15612 -0.29199,0.83829 -0.85757,3.55213 -1.25686,6.03077 -0.39928,2.47862 -1.268,7.30026 -1.93048,10.71474 -0.66248,3.41449 -1.3604,7.48526 -1.55095,9.04617 -0.19054,1.5609 -0.44641,3.98744 -0.5686,5.39231 -0.12218,1.40489 -0.0428,4.19855 0.17647,6.20815 0.21924,2.00961 0.71775,5.31581 1.10781,7.34712 0.39006,2.03131 1.11374,4.98461 1.60818,6.5629 0.49443,1.57829 1.61125,4.36161 2.48184,6.18516 l 1.58287,3.31555 2.72692,2.72512 c 1.4998,1.49882 3.39181,3.17197 4.20445,3.71813 0.81263,0.54615 2.40901,1.37601 3.54751,1.84412 1.13849,0.46811 2.65824,0.8549 3.37721,0.85954 0.71897,0.004 1.6768,-0.13362 2.1285,-0.30723 0.45171,-0.17362 2.75725,-1.67693 5.12343,-3.34071 2.36618,-1.66377 5.00021,-3.37624 5.8534,-3.80547 l 1.55125,-0.78041 -1.06426,1.18027 c -0.58534,0.64915 -4.91091,5.17759 -9.61237,10.0632 -4.70146,4.88561 -10.11185,10.62902 -12.02309,12.76313 -1.91125,2.13411 -4.14695,4.92777 -4.96821,6.20815 -0.82126,1.28037 -1.78353,3.12614 -2.13837,4.10171 -0.35484,0.97556 -0.88231,2.05312 -1.17216,2.39457 -0.28985,0.34145 -0.78161,0.61432 -1.09283,0.60639 -0.3112,-0.008 -1.11853,-0.48684 -1.79405,-1.06425 l -1.22823,-1.04984 h -1.35551 c -0.74553,0 -2.10849,0.38215 -3.02879,0.84923 -0.9203,0.46708 -3.35338,1.95722 -5.40683,3.31144 -2.05347,1.35422 -5.32605,3.3973 -7.2724,4.54018 -1.94637,1.1429 -6.17102,3.75185 -9.38814,5.79769 -3.2171,2.04584 -7.18307,4.66762 -8.81324,5.82618 -1.63018,1.15856 -4.58533,3.39266 -6.56701,4.96468 -1.98167,1.572 -4.56087,3.69359 -5.73155,4.71463 -1.17067,1.02104 -4.88045,4.78494 -8.24394,8.36421 -3.36349,3.57929 -7.9512,8.02435 -10.19492,9.87793 -2.24372,1.85357 -4.85754,3.81211 -5.8085,4.3523 l -1.72902,0.98217 z M 562.09599,252.41705 c -0.10919,-0.1092 -0.30759,0.0877 -0.44081,0.43752 l -0.24222,0.63612 0.44081,-0.43753 c 0.24244,-0.24064 0.35144,-0.52689 0.24222,-0.63611 z m 98.68935,-63.05811 c 1.07367,-0.39496 2.45797,-1.25097 3.07813,-1.90342 0.74514,-0.78395 1.2662,-1.81749 1.53784,-3.05039 l 0.41084,-1.86469 -0.57225,-3.51704 c -0.31475,-1.93438 -1.37705,-5.97116 -2.36067,-8.97064 -0.98364,-2.99947 -2.48722,-6.84949 -3.34129,-8.5556 -0.87564,-1.74917 -2.23635,-3.79336 -3.12006,-4.68728 -0.86195,-0.8719 -2.58655,-2.18905 -3.83245,-2.92698 -1.24588,-0.73794 -3.36256,-1.67741 -4.70371,-2.08771 l -2.43846,-0.746 -2.52806,0.20964 c -1.39043,0.11529 -3.08679,0.37495 -3.76968,0.57701 -0.6829,0.20207 -1.75543,0.68261 -2.38341,1.06787 -0.71194,0.43679 -1.54855,1.50631 -2.2223,2.841 -0.59429,1.17729 -1.30621,2.14052 -1.58205,2.14052 -0.28961,0 -0.80936,-0.86196 -1.22999,-2.03982 -0.40065,-1.1219 -1.03416,-2.59855 -1.4078,-3.28145 -0.39835,-0.72803 -0.95133,-1.24163 -1.33686,-1.24163 h -0.65751 l 0.0167,2.30588 c 0.009,1.26824 0.15165,5.33901 0.31654,9.04616 l 0.29982,6.74027 -0.64233,5.38107 -0.64234,5.38106 0.62478,0.95353 0.62477,0.95354 1.12002,-0.22119 c 0.61601,-0.12166 2.27306,-0.76727 3.68233,-1.4347 1.70706,-0.80847 3.24636,-1.90172 4.61176,-3.2754 1.1272,-1.13404 2.48454,-2.82017 3.0163,-3.74696 0.64763,-1.12874 1.20173,-1.68506 1.67831,-1.68506 0.46425,0 0.78931,0.31014 0.93548,0.89252 0.12321,0.49088 0.0357,2.7193 -0.19452,4.95202 -0.23019,2.23273 -0.3092,4.78862 -0.17556,5.67978 0.13363,0.89116 0.58848,2.13487 1.01075,2.76381 0.42228,0.62895 1.5609,1.58118 2.53027,2.11607 0.96935,0.5349 2.40102,1.15148 3.18147,1.37021 0.78045,0.21871 2.13738,0.52369 3.01539,0.67773 0.87801,0.15402 2.47439,0.19544 3.54751,0.092 1.07312,-0.10343 2.82914,-0.51101 3.90226,-0.90576 z m 168.89599,171.76533 c 0.46886,-0.40861 1.93255,-1.37496 3.25266,-2.14744 l 2.4002,-1.40453 2.69976,-3.26251 c 1.48487,-1.79439 5.15441,-5.87118 8.15453,-9.05954 3.00015,-3.18835 6.50321,-7.09948 7.78475,-8.6914 1.28143,-1.59192 3.1922,-4.33113 4.24604,-6.08715 1.05394,-1.75601 2.69888,-4.94878 3.6556,-7.09502 0.95661,-2.14624 2.70852,-6.85557 3.89317,-10.46516 1.18454,-3.60959 3.02913,-9.59602 4.09904,-13.30317 1.0698,-3.70715 2.21476,-8.07909 2.54423,-9.71542 0.39245,-1.94879 0.54599,-3.98696 0.44521,-5.90821 l -0.15398,-2.93307 -1.11758,-2.25107 c -0.61471,-1.23809 -2.15855,-3.60798 -3.43066,-5.26645 -1.27212,-1.65846 -3.10219,-4.04193 -4.067,-5.29661 -0.96471,-1.25466 -1.83074,-2.57449 -1.92442,-2.93294 -0.0942,-0.35844 0.051,-0.87295 0.32116,-1.14335 l 0.49167,-0.49164 3.77943,1.22554 3.77943,1.22555 1.04496,-0.22952 c 0.5747,-0.12622 1.58153,-0.70057 2.23726,-1.27632 0.70629,-0.62012 1.41369,-1.72694 1.73551,-2.71536 0.29877,-0.91768 0.70695,-2.70616 0.90717,-3.9744 0.20021,-1.26823 0.36539,-4.70045 0.36716,-7.62715 0,-2.9267 -0.16374,-6.67819 -0.36761,-8.33665 -0.20398,-1.65847 -0.53501,-3.85408 -0.73577,-4.87913 -0.23259,-1.18791 -0.60441,-1.99191 -1.02535,-2.21719 -0.36328,-0.19441 -0.99751,-0.35346 -1.40936,-0.35346 -0.41195,0 -1.14296,-0.39396 -1.62442,-0.87546 l -0.87546,-0.87546 0.22549,-5.9535 0.22548,-5.95351 -0.72679,-3.01539 c -0.39965,-1.65846 -1.36335,-4.7714 -2.14148,-6.91765 -0.77812,-2.14624 -2.87371,-7.89321 -4.65689,-12.77104 -1.78317,-4.87783 -3.96212,-10.76926 -4.84213,-13.09207 -0.88011,-2.3228 -2.07385,-5.16176 -2.65287,-6.30879 -0.57902,-1.14702 -1.7048,-3.15767 -2.50177,-4.46811 -0.79697,-1.31044 -2.01033,-3.07369 -2.69622,-3.91831 -0.68589,-0.84465 -1.77088,-1.78547 -2.41098,-2.09072 l -1.16392,-0.55502 -1.36137,0.70133 c -0.91814,0.473 -1.77349,1.37768 -2.6272,2.77872 -0.69621,1.14257 -1.4544,2.14025 -1.68488,2.21708 -0.23047,0.0768 -0.50813,-0.0925 -0.617,-0.37617 -0.10886,-0.28372 0.46641,-2.0131 1.2784,-3.84308 0.81201,-1.82997 2.11167,-4.72783 2.88815,-6.4397 0.77647,-1.71186 1.82392,-4.77827 2.32777,-6.81426 l 0.91604,-3.70178 -0.57226,-2.90427 c -0.37227,-1.88963 -1.14729,-4.04786 -2.2185,-6.17762 -0.90552,-1.80033 -2.54061,-4.45106 -3.63355,-5.89051 -1.09295,-1.43945 -2.92492,-3.73465 -4.07105,-5.10045 -1.14613,-1.36579 -3.31089,-3.56071 -4.81061,-4.8776 -1.4997,-1.3169 -3.84419,-2.94506 -5.20998,-3.61814 -1.36579,-0.67308 -3.23679,-1.42339 -4.15775,-1.66735 l -1.6745,-0.44356 -1.2706,0.60591 c -0.77847,0.37122 -1.45306,1.03984 -1.74167,1.72624 l -0.47106,1.12031 -0.25195,-0.79381 c -0.13857,-0.4366 -0.14423,-1.78021 -0.0125,-2.98581 0.13165,-1.20558 0.63144,-3.70854 1.11063,-5.56211 0.49471,-1.91361 1.35181,-4.13674 1.98316,-5.1439 0.61154,-0.97556 2.13755,-3.68941 3.39111,-6.03077 1.25357,-2.34136 3.32385,-6.01303 4.60063,-8.159275 1.27679,-2.146245 3.7311,-5.977556 5.45403,-8.514027 1.72293,-2.536471 4.45964,-6.317424 6.08158,-8.402118 1.62195,-2.084693 5.07131,-6.27302 7.66521,-9.307394 2.59401,-3.034372 7.05789,-7.77762 9.91996,-10.540549 2.86195,-2.762928 7.1193,-6.626027 9.46066,-8.584662 2.34135,-1.958635 5.77357,-4.670895 7.62715,-6.027244 1.85357,-1.356349 4.00869,-2.949885 4.78914,-3.541189 l 1.419,-1.075098 -0.90694,1.035049 c -0.49887,0.569277 -1.31757,1.593782 -1.81932,2.276678 -0.50164,0.682896 -2.29424,2.737664 -3.98341,4.566149 -1.68928,1.828487 -4.13163,4.845231 -5.42747,6.703879 -1.29584,1.858647 -3.34442,5.151755 -4.55235,7.318017 -1.20793,2.166261 -2.93235,5.800501 -3.83198,8.076087 -0.89962,2.275586 -1.94935,5.308709 -2.33282,6.740273 -0.38335,1.431565 -1.04385,4.816737 -1.46778,7.522605 -0.52492,3.351037 -0.72148,5.89616 -0.6166,7.981907 0.0987,1.959834 0.37614,3.484799 0.77103,4.236273 0.33923,0.645769 1.19684,1.816159 1.90579,2.600869 0.70894,0.7847 2.17662,1.87062 3.26138,2.41317 1.08487,0.54255 2.82592,1.18771 3.86912,1.43369 1.09662,0.25859 3.07868,0.37881 4.6989,0.28502 l 2.8022,-0.16223 3.10562,-1.52453 3.10563,-1.52453 3.136,-3.234676 c 1.72476,-1.779067 4.33661,-5.030605 5.80417,-7.225626 1.46745,-2.195023 2.81506,-3.990951 2.99466,-3.990951 0.17948,0 0.40375,0.201589 0.49831,0.447977 0.0942,0.246388 -0.53811,2.36805 -1.40581,4.714803 -0.8677,2.346757 -1.89781,5.489144 -2.28914,6.98309 -0.39134,1.493935 -0.89952,4.333913 -1.12944,6.311083 -0.22982,1.97715 -0.31163,4.2604 -0.18181,5.07391 0.12981,0.8135 0.46705,1.83202 0.7493,2.26336 0.28236,0.43134 1.17234,0.96172 1.97785,1.17863 l 1.46457,0.39436 2.61218,-0.58115 c 1.43664,-0.31963 2.77349,-0.4814 2.97071,-0.3595 0.19722,0.12191 0.35863,0.58259 0.35863,1.02374 0,0.44114 -0.52979,1.42946 -1.17722,2.19625 -0.64753,0.7668 -1.69704,2.15854 -2.33226,3.09276 -0.63523,0.93422 -1.70835,2.91301 -2.38482,4.3973 -0.67635,1.4843 -1.618,4.19267 -2.09237,6.0186 -0.47448,1.82593 -0.96603,4.32966 -1.09252,5.56384 l -0.22992,2.24397 0.58124,1.99922 c 0.3196,1.09958 0.93754,2.40934 1.37311,2.91057 0.47115,0.54221 1.32566,0.99631 2.10977,1.12112 0.76615,0.12197 2.42672,-0.0513 3.96667,-0.41399 1.45681,-0.34309 2.8992,-0.52772 3.20518,-0.41028 0.30608,0.11743 0.5564,0.44788 0.5564,0.73434 0,0.28646 -0.74486,1.60849 -1.65536,2.93784 -0.91049,1.32934 -2.1826,3.53445 -2.82681,4.90025 -0.64432,1.36579 -1.4159,3.43472 -1.71478,4.59762 -0.33734,1.3128 -0.54066,3.6663 -0.53634,6.20814 0,2.25159 0.23292,5.79176 0.50918,7.86706 0.27626,2.07529 0.83067,5.15582 1.23199,6.84561 0.40142,1.68979 1.07256,3.86942 1.49173,4.84362 0.41905,0.97419 1.04829,1.92452 1.39838,2.11184 0.34998,0.18733 1.05982,0.3406 1.57731,0.3406 h 0.94098 l 1.90912,-1.95548 c 1.16037,-1.18858 2.39135,-2.96245 3.13877,-4.52308 0.67624,-1.41218 1.80136,-4.46116 2.50022,-6.77553 0.69886,-2.31435 1.53685,-5.74657 1.86222,-7.62715 l 0.59155,-3.41922 0.0211,-7.09503 0.0211,-7.09502 -0.65086,-2.30504 c -0.35786,-1.26778 -1.05084,-3.26326 -1.53996,-4.43439 -0.48911,-1.17115 -1.53773,-2.9755 -2.33038,-4.00969 -0.79265,-1.03419 -2.73247,-3.01427 -4.31089,-4.40016 -1.57831,-1.3859 -3.15185,-2.95389 -3.49674,-3.48441 -0.34488,-0.53052 -0.52514,-1.2303 -0.40042,-1.55504 0.1246,-0.32475 0.70917,-0.84002 1.29894,-1.14502 0.58988,-0.30501 3.10718,-1.25474 5.59398,-2.1105 2.48692,-0.85576 6.8385,-2.03772 9.67019,-2.6266 2.83158,-0.58887 6.56079,-1.4777 8.28699,-1.97517 1.72608,-0.49747 4.97427,-1.62965 7.21808,-2.51593 2.2438,-0.88629 5.27692,-2.2495 6.74027,-3.02935 1.46335,-0.77987 5.13502,-3.21944 8.15928,-5.42128 3.02425,-2.20184 6.66788,-5.08632 8.09686,-6.409975 1.42909,-1.323654 4.07853,-4.129093 5.88787,-6.234309 1.80923,-2.105215 4.16633,-5.152336 5.23801,-6.771379 1.07158,-1.619042 3.99461,-6.375931 6.4955,-10.570864 2.50088,-4.194933 5.42559,-9.063894 6.49926,-10.819912 1.07368,-1.756019 2.26287,-3.540416 2.64257,-3.965326 0.38801,-0.434045 0.92213,-0.683702 1.21901,-0.569763 l 0.52858,0.202804 -0.21939,1.101888 c -0.12073,0.606039 -1.67221,4.29465 -3.44774,8.196914 -1.77564,3.902263 -4.23817,9.664845 -5.47237,12.805738 -1.2342,3.140893 -2.80564,7.610758 -3.49208,9.933036 -0.68645,2.322279 -1.59849,5.659058 -2.02685,7.415078 l -0.77879,3.19276 -0.031,5.69271 -0.031,5.69271 1.31169,2.65574 1.31169,2.65574 3.2197,3.4548 3.2197,3.4548 -0.37138,0.69406 -0.37149,0.69405 -3.62777,-0.081 -3.62789,-0.081 -2.62017,1.41901 c -1.44106,0.78045 -3.82355,2.53647 -5.29433,3.90226 -1.47077,1.36579 -3.64407,3.62352 -4.8296,5.01717 -1.37267,1.61375 -3.40794,4.83433 -5.60452,8.86878 -1.93594,3.55547 -5.01097,10.05335 -7.00866,14.81007 -1.95779,4.66136 -4.25868,10.64779 -5.1133,13.30317 -0.85462,2.65539 -1.99071,6.57385 -2.52461,8.70768 l -0.97068,3.8797 0.17471,3.57007 c 0.11873,2.4261 0.41451,4.19529 0.92313,5.52121 0.41162,1.07312 1.11093,2.45275 1.55392,3.06584 0.443,0.61308 1.99681,2.52874 3.45284,4.25701 1.45603,1.72827 3.9057,4.57523 5.44366,6.32658 1.53795,1.75134 3.087,3.74681 3.4423,4.43439 0.3552,0.68756 1.79427,2.68686 3.19786,4.44288 1.4036,1.75602 3.13312,3.8311 3.8434,4.6113 l 1.29152,1.41854 -1.24163,-1.09832 c -0.6829,-0.60409 -2.84899,-2.28342 -4.81353,-3.73186 -1.96455,-1.44845 -4.75822,-3.23048 -6.20815,-3.96006 -1.44994,-0.72959 -3.54275,-1.50427 -4.65079,-1.72153 l -2.01443,-0.39499 -1.67454,0.81061 c -0.92102,0.44584 -2.21886,1.28858 -2.88424,1.87275 -0.66527,0.58418 -1.51345,1.65759 -1.88472,2.38537 -0.37127,0.72778 -1.24374,3.19929 -1.93872,5.49226 l -1.26369,4.16901 -0.93122,7.135 -0.93111,7.13501 -0.0355,14.5448 -0.0355,14.5448 0.47514,2.12851 c 0.26141,1.17068 1.01637,3.26637 1.67764,4.6571 0.66117,1.39072 1.75225,3.01145 2.4244,3.60161 l 1.22211,1.07302 2.599,0.59195 c 1.42943,0.32556 3.95592,0.75139 5.61438,0.9463 1.65846,0.1949 3.97321,0.25321 5.14389,0.12958 1.17068,-0.12363 2.8379,-0.40102 3.70516,-0.61645 0.97534,-0.24231 3.95137,-1.96857 7.80453,-4.52718 3.42523,-2.27454 7.1316,-4.87212 8.23621,-5.77241 l 2.00845,-1.63689 -1.1474,2.02986 c -0.63102,1.11641 -1.97264,3.25288 -2.98135,4.7477 -1.00861,1.49482 -2.7531,3.74728 -3.87644,5.00547 -1.12334,1.25819 -3.95802,3.88253 -6.29938,5.83186 -2.34136,1.94933 -5.69376,5.01456 -7.44978,6.81163 -1.75601,1.79708 -4.72085,4.51444 -6.5885,6.0386 -1.86766,1.52414 -4.50168,3.48557 -5.8534,4.35872 -1.35171,0.87315 -4.3733,2.54976 -6.71466,3.72579 -2.34136,1.17605 -5.69376,2.73329 -7.44978,3.46054 -1.75602,0.72727 -5.37514,2.09122 -8.04243,3.03101 -2.66728,0.9398 -8.41425,2.66501 -12.77104,3.83382 -4.35679,1.16879 -10.47558,3.00399 -13.59739,4.07821 -3.12182,1.07422 -7.79799,2.8216 -10.39133,3.88308 -2.59346,1.06148 -6.00472,2.70611 -7.5807,3.65475 -1.70148,1.02415 -4.63705,3.38198 -7.22684,5.80443 -2.39878,2.2438 -7.21808,6.79348 -10.70961,10.11041 l -6.34828,6.03077 -3.8816,2.17497 c -2.13489,1.19624 -4.80552,2.51325 -5.93473,2.92669 -1.12923,0.41345 -2.39085,0.75173 -2.80361,0.75173 h -0.75048 z m -410.99608,-4.54984 c -0.12733,-0.20604 0.53499,-1.21449 1.47182,-2.24102 0.93683,-1.02651 2.88606,-3.14367 4.33162,-4.70477 1.44557,-1.56111 3.69532,-4.11548 4.99945,-5.67639 1.30413,-1.5609 4.04597,-5.07294 6.09299,-7.80453 2.04702,-2.73158 4.69957,-6.42728 5.89456,-8.21264 1.19499,-1.78538 4.03203,-6.4947 6.30453,-10.46516 2.2725,-3.97048 4.94776,-8.57596 5.94501,-10.23442 0.99725,-1.65846 3.57446,-5.6781 5.72712,-8.93252 2.15267,-3.25444 5.22212,-8.04758 6.82102,-10.65143 1.59888,-2.60386 3.31261,-5.4599 3.80827,-6.34673 0.52337,-0.93641 1.08862,-2.79184 1.34822,-4.4255 0.24586,-1.54718 0.42707,-3.70179 0.4027,-4.78801 -0.0247,-1.101 -0.32005,-2.51387 -0.66743,-3.19276 -0.34272,-0.6698 -1.1601,-1.81692 -1.81641,-2.54916 -0.65631,-0.73223 -1.19329,-1.59268 -1.19329,-1.9121 0,-0.31942 0.51883,-1.02499 1.15294,-1.56796 0.63412,-0.54296 2.28569,-1.94363 3.67014,-3.11259 1.38446,-1.16896 3.10502,-3.01098 3.82348,-4.09339 0.71846,-1.0824 1.74083,-2.80803 2.27195,-3.83472 l 0.96566,-1.86674 -0.022,-8.87813 c -0.0121,-4.88299 -0.1319,-9.30547 -0.26631,-9.82774 -0.13441,-0.52229 -0.52364,-1.00773 -0.86495,-1.07878 -0.34132,-0.0711 -1.41876,0.009 -2.39433,0.17685 -0.97556,0.16832 -2.95616,0.94003 -4.40133,1.7149 l -2.62759,1.40889 -0.36772,-0.36773 -0.36773,-0.36774 1.04418,-1.10637 c 0.57429,-0.6085 3.47415,-3.16974 6.44413,-5.69165 3.16952,-2.69135 5.99499,-5.41623 6.84053,-6.59704 0.79233,-1.10647 1.67189,-2.81659 1.95458,-3.80028 0.2827,-0.98368 0.6579,-3.38103 0.83378,-5.32742 0.20947,-2.31808 0.15518,-8.31467 -0.15737,-17.38281 -0.26242,-7.61415 -0.48319,-16.12637 -0.49059,-18.91606 l -0.0134,-5.07214 -11.44072,0.22324 c -6.2924,0.12277 -12.66431,0.36367 -14.1598,0.53531 -1.4955,0.17165 -3.60531,0.62358 -4.68848,1.00428 -1.08317,0.38071 -2.94357,1.37553 -4.13424,2.21074 -1.19065,0.83519 -2.77708,2.28749 -3.52538,3.22732 -0.74831,0.93984 -2.07959,3.10404 -2.95838,4.80935 -0.87881,1.70531 -1.87545,4.05839 -2.21476,5.22907 -0.33932,1.17068 -0.79301,3.6283 -1.00822,5.46136 l -0.3913,3.33284 -0.60379,0.3795 c -0.33209,0.20872 -0.70524,0.27806 -0.82921,0.15408 -0.12399,-0.12397 -0.36729,-0.8367 -0.54069,-1.58383 -0.17339,-0.74714 -0.31907,-4.32351 -0.32373,-7.9475 -0.006,-4.48951 0.17434,-7.6546 0.5652,-9.93303 0.31551,-1.83918 1.02251,-4.8033 1.57111,-6.58695 0.5486,-1.78363 1.10402,-4.33784 1.23427,-5.67602 0.13025,-1.33816 0.0635,-3.6697 -0.14837,-5.18119 -0.21186,-1.51149 -0.58642,-3.07122 -0.83236,-3.46607 -0.24595,-0.39486 -0.966,-0.86142 -1.60012,-1.03682 -0.72183,-0.19966 -1.65038,-0.1821 -2.48326,0.047 -0.73167,0.20123 -1.92026,0.66609 -2.64133,1.03301 -0.87612,0.44585 -1.38857,0.54163 -1.54485,0.28877 -0.12862,-0.2081 0.14084,-0.80555 0.59881,-1.32768 0.45795,-0.52211 1.99207,-2.16901 3.40913,-3.65978 1.58591,-1.66836 2.93499,-3.49352 3.50893,-4.74716 0.51282,-1.12017 1.23884,-3.17304 1.61336,-4.56192 0.416,-1.54268 0.7602,-4.31965 0.88463,-7.13701 l 0.20368,-4.61176 -0.58473,-2.30589 c -0.3216,-1.26823 -1.20643,-3.61011 -1.9663,-5.20417 -0.75985,-1.59407 -2.22182,-4.14828 -3.24881,-5.67602 -1.02698,-1.52775 -4.04329,-5.49157 -6.70289,-8.80849 -2.6596,-3.31693 -6.9191,-8.744621 -9.46554,-12.061545 -2.54645,-3.316924 -5.67285,-7.627149 -6.94755,-9.578281 -1.27471,-1.951131 -3.12107,-5.064073 -4.10304,-6.917648 -0.98196,-1.853575 -2.36278,-4.774962 -3.0685,-6.491969 -0.70572,-1.717007 -1.5929,-4.351034 -1.97151,-5.853395 -0.37861,-1.50236 -0.67824,-3.130658 -0.66583,-3.618441 0.014,-0.547882 0.1,-0.68348 0.22512,-0.354751 0.11141,0.29267 0.31793,0.611946 0.45892,0.709502 0.141,0.09756 0.85423,1.368082 1.58495,2.823389 0.73072,1.455308 2.4566,4.328793 3.83527,6.385523 1.45786,2.174864 4.07504,5.351988 6.25507,7.593348 2.06162,2.119613 4.71724,4.547489 5.90138,5.39528 1.18415,0.84779 5.09528,3.03552 8.6914,4.861623 3.59614,1.826098 9.09263,4.324356 12.21444,5.551673 3.12181,1.227317 8.70541,3.344428 12.40799,4.704702 3.70259,1.36027 8.78758,3.02049 11.3,3.68939 2.51242,0.66889 6.98602,1.59758 9.94134,2.06373 2.95532,0.46616 6.3377,0.94795 7.51639,1.07064 1.1787,0.12269 3.30862,0.0578 4.73319,-0.14427 1.42456,-0.20205 3.80863,-0.87463 5.29796,-1.49463 1.49023,-0.62039 3.36864,-1.73638 4.17738,-2.48186 0.80826,-0.74502 1.91768,-2.00123 2.46538,-2.79156 0.5477,-0.790339 1.40691,-2.66521 1.90932,-4.166362 l 0.91349,-2.729423 0.77771,-0.110638 0.77771,-0.110638 0.5043,0.997561 c 0.27736,0.548656 0.8713,2.115015 1.31987,3.480808 0.44856,1.365792 1.4071,3.760362 2.13009,5.321272 0.72299,1.5609 1.69672,3.1894 2.16385,3.61887 0.46713,0.42947 1.58295,1.10537 2.47958,1.50199 0.89664,0.39664 2.73049,0.88018 4.07523,1.07457 1.34473,0.19438 6.06594,0.35658 10.49158,0.36043 l 8.04662,0.007 4.01492,-1.03748 c 2.20821,-0.5706 5.21221,-1.46481 6.67556,-1.98711 1.46335,-0.5223 4.97539,-2.13668 7.80453,-3.58752 2.82914,-1.45084 6.50081,-3.585253 8.15928,-4.743138 1.65846,-1.157886 5.33013,-3.690899 8.15927,-5.628893 2.82915,-1.938005 5.72633,-4.137536 6.4382,-4.887849 0.71187,-0.750314 2.28628,-2.880768 3.4987,-4.734343 1.21241,-1.853575 4.1609,-7.361088 6.55217,-12.238917 2.39128,-4.877829 4.63466,-9.666971 4.98528,-10.642537 0.35063,-0.975566 0.77075,-1.925412 0.93361,-2.110769 0.18487,-0.210399 0.44696,-0.186179 0.6976,0.06447 l 0.40148,0.401478 -0.39357,2.646231 c -0.21648,1.455428 -1.81996,8.370675 -3.5633,15.367214 -1.74334,6.99654 -4.45798,17.789621 -6.03254,23.984623 -1.69414,6.66553 -3.17316,13.39961 -3.62303,16.49593 l -0.76021,5.23228 0.37645,3.07073 c 0.24082,1.96436 0.69873,3.7067 1.27092,4.83588 0.51501,1.01632 1.82605,2.59498 3.09041,3.72124 1.48766,1.32516 2.12792,2.13333 1.98506,2.50563 -0.11668,0.30408 -0.81343,0.63796 -1.55984,0.74748 -0.74193,0.10886 -2.20619,0.35271 -3.25391,0.54188 -1.04772,0.18918 -3.20283,0.97642 -4.78914,1.74944 -1.58631,0.77301 -4.21815,2.47842 -5.84853,3.78979 -1.63038,1.31137 -3.83484,3.43708 -4.89878,4.7238 -1.06395,1.28672 -2.4832,3.45694 -3.15389,4.82274 -0.67069,1.36579 -1.80642,4.15945 -2.52384,6.20814 l -1.3044,3.72489 -0.0111,4.61177 c -0.008,3.00652 0.21169,5.78484 0.62889,7.9819 0.35198,1.85357 1.04786,4.70588 1.54639,6.33845 0.49875,1.63326 1.52083,3.88838 2.27246,5.01394 0.75131,1.1251 2.24322,2.70792 3.31535,3.51739 1.07214,0.80947 1.94934,1.69662 1.94934,1.97147 0,0.27483 -0.16436,0.60127 -0.36525,0.72543 -0.20089,0.12415 -1.59772,-0.56214 -3.10408,-1.52509 -1.50635,-0.96296 -4.81411,-2.90454 -7.35058,-4.31464 -2.53648,-1.4101 -7.56507,-4.52191 -11.17467,-6.91515 -3.60959,-2.39323 -7.55547,-4.92581 -8.76862,-5.62795 -1.21315,-0.70215 -3.28844,-1.74958 -4.61176,-2.32762 -1.32332,-0.57805 -3.33581,-1.31922 -4.47217,-1.64707 -1.13637,-0.32783 -2.15171,-0.51048 -2.25632,-0.40587 -0.10465,0.10465 -0.0122,5.42735 0.20543,11.82831 0.2176,6.40095 0.39978,14.11248 0.40484,17.13673 0.006,3.02425 0.15896,6.6516 0.34203,8.06076 0.18673,1.43742 0.72404,3.33411 1.22403,4.3208 0.54969,1.08476 1.66381,2.38805 2.9074,3.40108 1.10891,0.9033 2.46882,1.87644 3.02202,2.16252 0.55322,0.28607 1.00583,0.73594 1.00583,0.99971 0,0.26377 -0.19954,0.63572 -0.44343,0.82657 -0.2439,0.19084 -1.16181,0.52237 -2.03982,0.73673 -0.87801,0.21437 -3.27258,1.01625 -5.32127,1.78197 l -3.72489,1.39223 -0.41588,0.84117 c -0.22874,0.46265 -0.58792,2.08992 -0.79819,3.61617 -0.21027,1.52625 -0.38278,4.87865 -0.38334,7.44977 -5.7e-4,2.57113 0.1605,7.14918 0.35792,10.17344 0.19742,3.02425 0.60075,9.90391 0.89627,15.28813 0.29553,5.38423 0.768,11.21578 1.04995,12.95901 0.28195,1.74323 0.91896,4.57168 1.4156,6.28546 0.49663,1.71378 1.31719,4.10358 1.82348,5.31068 0.50627,1.20711 1.89988,4.01419 3.09691,6.23798 1.36011,2.52675 3.0259,4.98828 4.44132,6.5629 1.2457,1.3858 2.50224,2.87884 2.79232,3.31784 0.29008,0.43901 0.77511,0.79819 1.07787,0.79819 0.30275,0 0.44927,0.10122 0.32562,0.22484 -0.12367,0.12365 0.68783,1.27802 1.80331,2.56527 l 2.02816,2.34044 -2.57843,-2.26795 -2.57845,-2.26794 -1.14644,-0.11725 c -0.63055,-0.0645 -4.5502,-0.29223 -8.71033,-0.50609 l -7.56386,-0.38882 -3.75727,0.75621 c -2.06649,0.41591 -6.32538,1.60536 -9.46419,2.64323 -3.1388,1.03786 -8.1015,2.80712 -11.02819,3.93171 -2.9267,1.12458 -7.58053,3.0535 -10.34184,4.28648 -2.76132,1.23299 -7.78992,3.62721 -11.17467,5.32049 -3.38474,1.69328 -7.98993,4.11619 -10.23373,5.38425 -2.2438,1.26805 -6.8733,4.14275 -10.28778,6.38823 -3.41448,2.24547 -9.48073,6.56542 -13.48055,9.59988 -3.99982,3.03447 -8.78896,6.73835 -10.64253,8.23085 -1.85358,1.4925 -5.25313,4.10494 -7.55455,5.80543 -2.30143,1.70048 -4.40048,3.1747 -4.66457,3.27604 -0.26409,0.10132 -0.58434,0.0157 -0.71169,-0.19035 z m -7.95549,-280.731327 -0.44081,-0.437527 0.24221,0.636114 c 0.13322,0.349863 0.3316,0.546749 0.44082,0.437527 0.10919,-0.109219 2.2e-4,-0.395475 -0.24222,-0.636114 z m 753.86014,278.821347 -0.3947,-0.47568 2.5306,-2.98975 c 1.3918,-1.64437 4.2176,-5.22469 6.2795,-7.95627 2.0619,-2.73159 5.0135,-7.04181 6.5591,-9.57828 1.5458,-2.53648 3.5923,-6.20815 4.5482,-8.15928 0.9557,-1.95113 2.2718,-5.30353 2.9247,-7.44978 0.6529,-2.14624 1.7628,-6.29683 2.4663,-9.22353 0.7035,-2.9267 1.4253,-6.48905 1.604,-7.91635 0.1787,-1.4273 0.2352,-4.41576 0.1257,-6.64103 l -0.1993,-4.04595 0.4734,-0.57036 c 0.2604,-0.31369 1.256,-0.96698 2.2127,-1.45176 0.9566,-0.48476 2.4356,-1.52322 3.2867,-2.30766 0.851,-0.78446 1.9541,-2.24256 2.4512,-3.24022 l 0.9039,-1.81395 v -2.8668 -2.8668 l -0.5986,-0.87712 c -0.3292,-0.48242 -1.327,-1.74226 -2.2172,-2.79965 -0.8902,-1.05739 -2.3283,-2.37441 -3.1956,-2.9267 l -1.5772,-1.00417 h -1.5745 c -0.8659,0 -2.1968,0.18644 -2.9573,0.41431 l -1.3828,0.41432 -0.3952,-0.39516 -0.3951,-0.39515 2.4463,-2.54745 c 1.3455,-1.4011 3.5129,-3.40325 4.8165,-4.44922 l 2.3703,-1.90178 1.1772,-2.39359 1.1774,-2.3936 -0.014,-2.13381 -0.014,-2.1338 -1.7156,-3.29931 c -0.9435,-1.81462 -2.7537,-4.76792 -4.0225,-6.5629 -1.2686,-1.79497 -3.9223,-5.08387 -5.8969,-7.30865 -1.9745,-2.22479 -4.4633,-5.08618 -5.5307,-6.35866 -1.2236,-1.45875 -3.8452,-3.73485 -7.095,-6.16018 l -5.1545,-3.84659 -2.8018,-1.08276 -2.8018,-1.08278 -0.2449,0.39618 c -0.1347,0.2179 -0.4321,2.58366 -0.661,5.25724 -0.2288,2.67359 -0.5859,7.25563 -0.7934,10.18233 -0.2075,2.9267 -0.2775,6.83784 -0.1557,8.69141 0.1218,1.85358 0.4708,4.643 0.7756,6.19872 0.3046,1.55571 0.9318,3.68277 1.3934,4.72678 0.4981,1.1261 1.7806,2.87307 3.1533,4.29485 1.2883,1.33445 2.3137,2.71309 2.3137,3.11066 0,0.48056 -0.4929,0.97025 -1.5077,1.49777 -0.8292,0.43108 -1.7591,0.975 -2.0664,1.20871 -0.3074,0.23373 -0.8465,0.86691 -1.1981,1.40706 l -0.6392,0.9821 0.2467,2.18032 c 0.1357,1.19918 0.6326,3.40202 1.1043,4.89521 0.4816,1.52473 1.4707,3.57112 2.2563,4.66806 0.7691,1.07423 2.2481,2.59564 3.2864,3.38088 1.0383,0.78525 2.9693,2.18721 4.2911,3.11546 1.3218,0.92825 3.1576,1.91813 4.0796,2.19971 l 1.6764,0.51198 5.4386,-0.0805 5.4387,-0.0805 0.2932,0.47457 c 0.1613,0.26101 0.2198,0.66615 0.1299,0.90031 -0.09,0.23414 -0.514,0.60376 -0.9427,0.82136 -0.4286,0.21759 -2.6764,1.12017 -4.9949,2.0057 -2.3186,0.88554 -5.5113,2.38262 -7.0951,3.32686 -1.5837,0.94423 -4.1565,2.4076 -5.7174,3.25193 -1.5609,0.84433 -4.9133,2.80498 -7.4498,4.35701 -2.5365,1.55201 -7.0044,4.09497 -9.9286,5.651 -2.9243,1.55602 -7.8731,3.86913 -10.9973,5.14024 -3.1242,1.2711 -6.4786,2.62438 -7.4542,3.00729 -0.9756,0.38291 -3.2105,1.43711 -4.9665,2.34266 -1.756,0.90556 -6.2259,3.67752 -9.9331,6.1599 -3.7071,2.48239 -7.7278,5.35941 -8.9348,6.39337 -1.2071,1.03397 -3.5218,3.01485 -5.1439,4.40197 -1.6221,1.38713 -4.4661,3.56701 -6.3199,4.84418 -1.8539,1.27717 -5.9668,3.6254 -9.1399,5.21828 -3.7598,1.88747 -7.6288,3.50006 -11.1088,4.63011 -2.9368,0.95367 -6.0076,1.78075 -6.8239,1.83795 -0.8165,0.0572 -1.5609,-0.0557 -1.6545,-0.25074 -0.093,-0.19511 0.8644,-1.01769 2.1285,-1.82795 1.2642,-0.81027 3.8704,-2.6461 5.7918,-4.07964 1.9212,-1.43354 5.7685,-4.84137 8.5497,-7.57295 2.7811,-2.73159 6.2943,-6.53221 7.8071,-8.44581 1.5128,-1.91361 3.6274,-4.86691 4.6992,-6.5629 1.0719,-1.69599 3.1239,-5.47818 4.5602,-8.40487 1.4362,-2.9267 3.1817,-6.82482 3.8789,-8.66249 0.6972,-1.83766 1.7389,-5.11024 2.3152,-7.2724 0.5761,-2.16215 1.5382,-6.24593 2.1377,-9.07508 0.5995,-2.82914 1.4047,-7.19336 1.7893,-9.69828 0.3844,-2.50492 1.018,-8.17207 1.4077,-12.59367 0.3897,-4.42161 0.8597,-13.55234 1.0445,-20.29054 0.1849,-6.73819 0.4435,-13.40699 0.5748,-14.81956 l 0.2388,-2.56829 -2.9661,1.2695 c -1.6313,0.69822 -4.1175,1.92468 -5.525,2.72546 -1.4075,0.80078 -3.648,2.26881 -4.9789,3.26227 -1.331,0.99347 -4.1829,3.56233 -6.3377,5.70858 -2.282,2.27313 -4.6859,5.08708 -5.7579,6.74027 -1.0123,1.56091 -2.069,3.15729 -2.3486,3.54751 l -0.508,0.70951 -0.3912,-0.37818 -0.3912,-0.37818 1.0752,-3.6193 c 0.5915,-1.99062 1.6815,-5.02537 2.4223,-6.7439 0.741,-1.71852 2.3749,-4.83575 3.631,-6.92716 1.2561,-2.09141 4.4198,-6.78856 7.0303,-10.43811 2.6106,-3.64956 6.8842,-9.48318 9.4969,-12.96362 3.0618,-4.07849 5.311,-7.48349 6.3274,-9.57828 0.8672,-1.78761 1.9167,-4.60714 2.3322,-6.26561 l 0.7555,-3.01538 0.1762,-6.03077 c 0.1075,-3.67954 -0.039,-9.21185 -0.375,-14.19005 -0.3034,-4.4876 -0.7987,-9.56163 -1.1009,-11.27563 -0.3022,-1.71401 -0.8853,-3.83076 -1.2957,-4.70392 -0.5092,-1.08318 -1.031,-1.65901 -1.6426,-1.81252 l -0.8963,-0.22497 -3.8089,1.87933 c -2.2465,1.1084 -4.045,1.78877 -4.3843,1.65857 -0.3164,-0.12142 -0.5753,-0.36066 -0.5753,-0.53165 0,-0.17099 0.6121,-1.25356 1.3601,-2.40571 0.7479,-1.15214 2.3434,-3.2921 3.5454,-4.75545 1.202,-1.46335 3.0782,-3.69828 4.1693,-4.96652 1.0912,-1.26823 3.0911,-4.16831 4.4441,-6.44462 1.3532,-2.27631 3.245,-5.78834 4.204,-7.80453 0.9592,-2.01618 2.3126,-5.59559 3.0077,-7.95425 0.6951,-2.35866 1.5788,-5.79752 1.964,-7.6419 0.3851,-1.8444 1.0979,-5.98083 1.5838,-9.19208 0.486,-3.211256 1.1262,-8.233214 1.4227,-11.159912 0.2965,-2.926695 0.7103,-9.312217 0.9196,-14.190046 0.2093,-4.877829 0.3575,-14.775388 0.3294,-21.994577 -0.028,-7.219187 -0.024,-13.764347 0.011,-14.544799 0.04,-0.969116 0.445,0.432663 1.2772,4.421388 0.6701,3.212216 1.9238,8.719729 2.7858,12.238917 0.8622,3.519189 2.2278,8.314181 3.0347,10.655539 0.807,2.341358 2.2573,5.919512 3.2231,7.951455 0.9657,2.031942 2.6239,4.998901 3.6848,6.593244 1.0608,1.594343 3.0162,3.922797 4.3453,5.174342 1.3292,1.251544 3.3759,2.784576 4.5482,3.406734 l 2.1317,1.131202 3.716,0.224757 c 2.0439,0.123609 4.5542,0.384173 5.5785,0.57901 1.029,0.195722 1.8625,0.546926 1.8625,0.784765 0,0.236763 -0.5189,0.735177 -1.153,1.107566 -0.6341,0.3724 -2.139,1.449924 -3.3443,2.394504 -1.3758,1.0781 -2.4652,2.282813 -2.9267,3.236281 -0.4044,0.83539 -0.7353,1.91957 -0.7353,2.4093 0,0.48973 0.3614,1.2299 0.803,1.64482 0.4417,0.41493 1.3917,1.00033 2.111,1.30091 0.7557,0.31575 3.0003,0.63906 5.3164,0.76574 2.473,0.13526 5.2995,0.0501 7.3786,-0.2224 1.8536,-0.2429 4.444,-0.53996 5.7563,-0.66012 l 2.386,-0.21848 3.4674,-3.226 c 1.907,-1.7743 4.7609,-4.887241 6.3421,-6.917649 1.5811,-2.030407 5.0553,-6.88441 7.7204,-10.786674 2.665,-3.902263 5.2262,-7.556149 5.6917,-8.119747 l 0.8462,-1.024723 -0.3464,1.55685 c -0.1906,0.856267 -1.2254,4.341157 -2.2995,7.744199 l -1.953,6.18735 -0.356,3.39093 c -0.1957,1.865016 -0.2471,5.131687 -0.1142,7.259274 0.133,2.12759 0.4444,4.54152 0.692,5.36429 0.2476,0.82277 0.9794,2.27478 1.6262,3.22669 0.6469,0.95191 4.6233,5.24277 8.8366,9.53525 4.2133,4.29249 8.794,9.16145 10.1793,10.81991 1.3853,1.65847 3.108,3.94154 3.8281,5.0735 0.7203,1.13196 2.0783,3.76598 3.018,5.8534 0.9395,2.08741 2.5956,6.58894 3.6801,10.00343 1.0845,3.41448 2.3709,7.80452 2.8587,9.75565 0.4879,1.95114 1.5516,6.49818 2.364,10.10454 0.8123,3.60637 1.8448,7.27804 2.2944,8.15928 0.4496,0.88124 1.7265,2.60285 2.8375,3.82581 1.1999,1.32076 1.9411,2.42948 1.8255,2.73078 -0.1075,0.27896 -0.6419,0.73726 -1.1884,1.01842 -0.5467,0.28117 -2.9893,0.76892 -5.4283,1.08391 -2.4389,0.31499 -6.1904,1.04848 -8.3366,1.62997 -2.1462,0.5815 -4.8581,1.55747 -6.0262,2.16882 -1.1683,0.61134 -3.3413,1.89241 -4.8292,2.8468 -1.4878,0.9544 -3.5281,2.60546 -4.534,3.66902 -1.0059,1.06356 -2.121,2.61872 -2.4781,3.4559 -0.3572,0.83719 -0.8491,2.36025 -1.0933,3.38459 -0.2795,1.17277 -0.632,1.86245 -0.9518,1.86245 -0.2793,0 -0.5901,-0.27937 -0.6908,-0.62082 -0.1009,-0.34145 -0.6054,-1.48055 -1.1218,-2.53134 l -0.9389,-1.91053 -1.4389,-0.65362 c -0.7916,-0.3595 -1.7443,-0.65713 -2.1174,-0.66142 -0.3731,-0.004 -1.3434,0.38199 -2.1564,0.85839 -0.8129,0.47639 -1.8827,1.4777 -2.3774,2.22513 -0.4945,0.74741 -1.2403,2.02748 -1.6571,2.84457 -0.4792,0.93935 -0.7579,2.1474 -0.7579,3.28531 0,1.20106 0.2858,2.36375 0.8592,3.49547 0.4727,0.93269 1.5009,2.27528 2.2847,2.98355 0.8252,0.74542 1.9781,1.39143 2.7377,1.53394 0.7218,0.13541 2.5273,0.15205 4.0121,0.037 1.485,-0.11505 3.8174,-0.54938 5.1832,-0.96515 1.3658,-0.41577 4.798,-1.95665 7.6271,-3.42416 2.8292,-1.46752 6.0219,-3.32464 7.0951,-4.12696 1.0731,-0.80231 3.6803,-2.95279 5.7937,-4.77885 2.3079,-1.99397 4.0436,-3.24299 4.3457,-3.12706 0.2767,0.10621 0.5008,0.47741 0.4979,0.82498 0,0.34756 -0.244,1.31782 -0.536,2.15612 -0.292,0.83829 -0.8576,3.55213 -1.2568,6.03077 -0.3994,2.47862 -1.2681,7.30026 -1.9306,10.71474 -0.6624,3.41448 -1.3604,7.48525 -1.5509,9.04616 -0.1905,1.5609 -0.4464,3.98745 -0.5686,5.39232 -0.1221,1.40489 -0.043,4.19855 0.1764,6.20815 0.2193,2.00961 0.7178,5.31581 1.1078,7.34712 0.3901,2.03131 1.1138,4.98461 1.6083,6.5629 0.4944,1.57829 1.6112,4.36161 2.4818,6.18516 l 1.5828,3.31555 2.727,2.72511 c 1.4998,1.49883 3.3918,3.17198 4.2044,3.71814 0.8126,0.54615 2.409,1.37601 3.5475,1.84412 1.1386,0.46811 2.6582,0.8549 3.3773,0.85954 0.7189,0.004 1.6767,-0.13362 2.1285,-0.30723 0.4516,-0.17362 2.7572,-1.67693 5.1234,-3.34071 2.3662,-1.66377 5.0002,-3.37624 5.8534,-3.80547 l 1.5512,-0.78041 -1.0642,1.18027 c -0.5854,0.64915 -4.9109,5.17759 -9.6123,10.0632 -4.7016,4.88561 -10.112,10.62902 -12.0232,12.76313 -1.9113,2.13411 -4.147,4.92777 -4.9682,6.20815 -0.8213,1.28037 -1.7835,3.12614 -2.1384,4.10171 -0.3548,0.97556 -0.8823,2.05312 -1.1721,2.39457 -0.2899,0.34145 -0.7817,0.61432 -1.0929,0.60639 -0.3111,-0.008 -1.1185,-0.48684 -1.794,-1.06425 l -1.2282,-1.04984 h -1.3556 c -0.7454,0 -2.1085,0.38215 -3.0287,0.84923 -0.9204,0.46708 -3.3534,1.95722 -5.4069,3.31144 -2.0534,1.35422 -5.326,3.3973 -7.2724,4.54018 -1.9463,1.1429 -6.171,3.75185 -9.3881,5.79769 -3.2172,2.04584 -7.1831,4.66762 -8.8133,5.82618 -1.6301,1.15856 -4.5853,3.39266 -6.567,4.96468 -1.9817,1.572 -4.5608,3.69359 -5.7315,4.71463 -1.1707,1.02104 -4.8805,4.78494 -8.244,8.36421 -3.3635,3.57929 -7.9512,8.02435 -10.1949,9.87793 -2.2437,1.85357 -4.8575,3.81211 -5.8085,4.3523 l -1.7289,0.98217 z m -69.3028,-113.95419 c -0.1098,-0.1092 -0.3077,0.0877 -0.4408,0.43752 l -0.2423,0.63612 0.4408,-0.43753 c 0.2425,-0.24064 0.3515,-0.52689 0.2423,-0.63611 z m 98.6893,-63.05811 c 1.0737,-0.39496 2.458,-1.25097 3.0782,-1.90342 0.745,-0.78395 1.2662,-1.81749 1.5378,-3.05039 l 0.4109,-1.86469 -0.5723,-3.51704 c -0.3147,-1.93438 -1.3771,-5.97116 -2.3607,-8.97064 -0.9836,-2.99947 -2.4872,-6.84949 -3.3413,-8.5556 -0.8756,-1.74917 -2.2363,-3.79338 -3.12,-4.68729 -0.8619,-0.8719 -2.5866,-2.18904 -3.8324,-2.92697 -1.246,-0.73794 -3.3626,-1.67741 -4.7038,-2.08771 l -2.4385,-0.746 -2.528,0.20964 c -1.3904,0.11529 -3.0868,0.37495 -3.7697,0.57701 -0.6829,0.20207 -1.7555,0.68261 -2.3834,1.06787 -0.7119,0.43679 -1.5486,1.50631 -2.2223,2.841 -0.5943,1.17729 -1.3062,2.14052 -1.582,2.14052 -0.2896,0 -0.8094,-0.86196 -1.23,-2.03982 -0.4007,-1.1219 -1.0342,-2.59856 -1.4078,-3.28145 -0.3984,-0.72804 -0.9513,-1.24163 -1.3369,-1.24163 h -0.6575 l 0.017,2.30588 c 0.011,1.26824 0.1517,5.33901 0.3165,9.04616 l 0.2999,6.74027 -0.6423,5.38107 -0.6425,5.38106 0.6249,0.95353 0.6248,0.95354 1.12,-0.22119 c 0.616,-0.12166 2.273,-0.76727 3.6823,-1.4347 1.707,-0.80847 3.2463,-1.90172 4.6118,-3.2754 1.1272,-1.13404 2.4845,-2.82017 3.0162,-3.74696 0.6477,-1.12874 1.2017,-1.68506 1.6783,-1.68506 0.4643,0 0.7894,0.31014 0.9356,0.89252 0.1231,0.49088 0.036,2.7193 -0.1946,4.95202 -0.2301,2.23273 -0.3092,4.78862 -0.1756,5.67978 0.1337,0.89115 0.5886,2.13487 1.0108,2.76381 0.4223,0.62895 1.5609,1.58118 2.5303,2.11607 0.9694,0.5349 2.401,1.15148 3.1815,1.37021 0.7804,0.21871 2.1373,0.52369 3.0153,0.67773 0.8781,0.15402 2.4744,0.19544 3.5476,0.092 1.0731,-0.10343 2.8291,-0.51101 3.9022,-0.90576 z M 226.92461,353.78551 c 0,-0.15243 0.96239,-3.14564 2.13865,-6.65158 1.17625,-3.50594 2.52536,-7.891 2.99802,-9.74458 0.47266,-1.85357 1.26469,-5.56714 1.76007,-8.25236 0.49537,-2.68522 1.15701,-7.36322 1.4703,-10.39556 l 0.56961,-5.51333 -0.42517,-2.99515 c -0.23384,-1.64733 -0.76793,-3.66479 -1.18688,-4.48324 -0.41894,-0.81843 -1.20358,-1.81009 -1.74366,-2.20368 l -0.98194,-0.71561 -2.56557,0.0559 c -1.41106,0.0307 -4.08212,0.44702 -5.9357,0.9251 -1.85357,0.47808 -4.25125,1.20233 -5.32817,1.60944 -1.07691,0.40712 -4.50913,2.20381 -7.62715,3.99264 -3.11801,1.78884 -8.22332,4.6848 -11.34513,6.43549 -3.12181,1.75069 -6.42498,3.72837 -7.34037,4.39485 -0.91539,0.66647 -3.0045,2.68167 -4.64245,4.47821 -1.63796,1.79655 -3.69372,4.15516 -4.56838,5.24136 -0.87465,1.08621 -2.33282,3.33714 -3.24039,5.00208 -0.90755,1.66494 -2.37282,4.00889 -3.25612,5.20879 -0.88332,1.1999 -1.84582,2.18164 -2.1389,2.18164 -0.29307,0 -0.53133,-0.0399 -0.52944,-0.0887 0.002,-0.0488 0.39838,-2.40344 0.88112,-5.23258 0.48275,-2.82914 1.04272,-7.61828 1.24437,-10.64253 0.20165,-3.02426 0.52353,-7.33448 0.71528,-9.57829 0.19175,-2.2438 0.99007,-7.35221 1.77405,-11.35203 0.78399,-3.99982 1.57327,-9.0613 1.75396,-11.24775 0.1807,-2.18643 0.23775,-4.581 0.12679,-5.32126 -0.11096,-0.74026 -0.65955,-2.32397 -1.21908,-3.51935 -0.61827,-1.32082 -1.60986,-2.68462 -2.52781,-3.47663 -0.83075,-0.71676 -1.73149,-1.48119 -2.00162,-1.69872 l -0.49115,-0.3955 0.64764,-0.47358 c 0.3562,-0.26045 0.94434,-0.47356 1.30696,-0.47356 0.36262,0 1.09039,-0.2263 1.61726,-0.50289 0.52688,-0.27658 1.53859,-1.11468 2.24827,-1.86244 0.70967,-0.74776 1.37313,-1.83847 1.47435,-2.42381 0.10121,-0.58534 0.6792,-2.44204 1.28441,-4.126 0.6052,-1.68396 1.36457,-4.71708 1.68748,-6.74027 l 0.58712,-3.67853 0.30965,-31.04076 c 0.17031,-17.0724 0.33016,-32.1582 0.35522,-33.52399 0.025,-1.36579 -0.13032,-6.07511 -0.34528,-10.46516 -0.26473,-5.40653 -0.58069,-8.61143 -0.97925,-9.93303 -0.32364,-1.07313 -0.98028,-2.46996 -1.45921,-3.10408 l -0.87078,-1.15294 h -1.00783 c -0.60802,0 -1.57359,0.45739 -2.43393,1.15294 -0.78434,0.63412 -2.26554,2.41262 -3.29154,3.95223 -1.02599,1.5396 -2.28238,3.82854 -2.79195,5.08652 -0.50958,1.25799 -1.07843,2.23325 -1.26409,2.16724 -0.18567,-0.066 -0.28892,-0.43929 -0.22943,-0.82951 0.0595,-0.39023 0.75062,-3.74263 1.53584,-7.44978 0.78523,-3.70715 2.0702,-8.73575 2.85549,-11.17466 0.7853,-2.43892 2.18778,-6.35005 3.11663,-8.69141 0.92885,-2.34136 2.25064,-6.01303 2.93731,-8.15928 0.68669,-2.14624 1.46395,-4.86009 1.72725,-6.03077 l 0.47874,-2.12851 -0.0447,-7.44977 c -0.0274,-4.56746 -0.21011,-8.05479 -0.4722,-9.01352 -0.23512,-0.86006 -0.88119,-2.01744 -1.43569,-2.57195 -0.67647,-0.67646 -1.37201,-1.0082 -2.11388,-1.0082 -0.60812,0 -1.76054,0.33409 -2.56093,0.74242 -0.8004,0.40833 -2.22952,1.46665 -3.17582,2.35181 -0.94633,0.88516 -2.89713,3.14519 -4.33513,5.02229 -1.43801,1.87709 -3.36265,4.57027 -4.277,5.98484 -0.91435,1.41457 -1.81435,2.57195 -2.00001,2.57195 -0.18567,0 -0.33757,-0.21588 -0.33757,-0.47973 0,-0.26384 0.70066,-2.13959 1.55702,-4.16832 0.85634,-2.02874 2.46923,-5.68408 3.58417,-8.123 1.11493,-2.43891 3.11324,-6.90877 4.44066,-9.93303 1.32742,-3.02425 2.96149,-6.69593 3.63125,-8.15927 0.66974,-1.46335 2.27627,-5.77358 3.57005,-9.578286 1.29377,-3.804705 3.53699,-11.068236 4.9849,-16.141178 l 2.63259,-9.223532 1.10334,-6.740273 c 0.60684,-3.70715 1.10312,-7.28593 1.10285,-7.952844 -2.7e-4,-0.666914 0.17963,-2.246921 0.39979,-3.511127 l 0.40027,-2.298556 0.42982,1.027868 c 0.26705,0.63863 0.51686,4.117659 0.65967,9.187147 0.12643,4.487603 0.39344,9.59602 0.59336,11.352039 0.19993,1.756018 0.61852,4.469865 0.93023,6.03077 0.31169,1.560906 1.03532,4.240115 1.60804,5.953799 0.57272,1.713684 2.31871,5.944092 3.87997,9.400907 1.56125,3.456818 3.54367,7.736093 4.40539,9.509506 l 1.56675,3.22439 1.64442,1.51578 1.64444,1.51579 1.41639,-0.2265 c 0.77902,-0.12457 2.00148,-0.52498 2.7166,-0.88979 0.7151,-0.36482 2.09727,-1.5342 3.07151,-2.59861 0.97423,-1.06442 2.5396,-2.83699 3.47859,-3.939058 0.93899,-1.102068 1.95404,-2.003768 2.25565,-2.003768 h 0.54839 l -0.19509,0.798191 c -0.10731,0.439004 -0.38127,1.880465 -0.60883,3.203255 -0.22755,1.32278 -0.35481,3.57212 -0.28277,4.99851 l 0.13096,2.59346 0.96601,1.45973 0.966,1.45974 2.33709,0.72185 c 1.28539,0.39701 3.32326,0.8819 4.52861,1.07753 1.20533,0.19563 3.53884,0.35689 5.18557,0.35837 1.64674,10e-4 4.75968,-0.32835 6.91765,-0.73293 2.15798,-0.40458 6.15853,-1.43774 8.89011,-2.29589 l 4.96652,-1.5603 4.27148,-2.59307 c 2.34931,-1.4262 5.94116,-3.94423 7.9819,-5.59563 2.04073,-1.651398 4.43014,-3.72167 5.30979,-4.600622 0.87965,-0.87894 4.83783,-4.982846 8.79596,-9.119793 3.95813,-4.136946 8.42664,-8.457944 9.93004,-9.602219 1.50341,-1.144273 4.1702,-3.038397 5.92622,-4.209163 1.75602,-1.170765 5.98643,-3.504099 9.40091,-5.185187 3.41448,-1.681086 7.00634,-3.480701 7.9819,-3.999144 0.97557,-0.518443 2.38626,-1.260115 3.13488,-1.648161 0.74862,-0.388046 1.43692,-0.629738 1.52957,-0.537095 0.0927,0.09265 -0.36023,0.783294 -1.00638,1.534779 -0.64614,0.751485 -1.5739,1.681799 -2.06169,2.067364 -0.48778,0.385566 -1.82449,1.583407 -2.97048,2.661869 -1.14598,1.078463 -2.9926,3.078308 -4.10358,4.444101 -1.11098,1.365792 -2.53137,3.235265 -3.15642,4.154385 -0.62505,0.919119 -2.21811,3.792605 -3.54014,6.385521 -1.32202,2.592918 -3.07514,6.709871 -3.89581,9.148784 -0.82068,2.438914 -2.35523,8.185881 -3.4101,12.771041 -1.05489,4.58516 -2.24885,10.01285 -2.65325,12.06154 -0.40441,2.04869 -1.06682,6.2791 -1.47202,9.40091 -0.4052,3.12181 -0.97587,7.19258 -1.26813,9.04615 -0.29226,1.85358 -0.82641,4.72706 -1.18703,6.38552 -0.3606,1.65847 -1.24082,5.09068 -1.95603,7.62716 -0.71522,2.53647 -1.93382,6.12829 -2.70802,7.98182 -0.7742,1.85353 -2.98101,6.3234 -4.90404,9.93304 -1.92303,3.60963 -3.75312,7.36116 -4.06688,8.33673 -0.31377,0.97556 -0.89796,2.31058 -1.29821,2.9667 -0.40026,0.65613 -0.81868,1.10202 -0.92983,0.99087 -0.11115,-0.11115 0.13371,-1.52599 0.54414,-3.14408 0.41041,-1.6181 0.9013,-4.04981 1.09084,-5.40381 0.21635,-1.54543 0.22269,-3.42361 0.0171,-5.04567 -0.20906,-1.64892 -0.71686,-3.35497 -1.40334,-4.7149 -0.73449,-1.45501 -1.66292,-2.59516 -2.92672,-3.59414 -1.01805,-0.80472 -4.01055,-2.54232 -6.65003,-3.86134 -2.63947,-1.31903 -6.2427,-2.97338 -8.00717,-3.67634 -1.76449,-0.70298 -4.34653,-1.47333 -5.73787,-1.71192 l -2.52972,-0.4338 -2.06666,0.38901 c -1.13667,0.21395 -2.96147,0.72611 -4.05514,1.13813 -1.09366,0.41203 -2.74206,1.24829 -3.6631,1.85836 -0.92105,0.61008 -2.45616,2.14159 -3.41135,3.40338 -0.95519,1.26178 -2.60169,3.99248 -3.65889,6.06821 -1.05719,2.07572 -2.40977,5.21079 -3.00571,6.96681 -0.59595,1.75602 -1.44433,4.86896 -1.88532,6.91765 l -0.80177,3.72489 -0.01,5.67602 -0.01,5.67602 1.16336,3.35237 c 0.63984,1.84381 1.6427,4.25172 2.22856,5.35091 0.58586,1.0992 1.56401,2.60368 2.17366,3.34329 0.60965,0.73961 1.63922,1.56652 2.28794,1.83756 l 1.17947,0.49281 1.1629,-0.48588 c 0.6396,-0.26724 1.87963,-1.28307 2.75563,-2.2574 0.87601,-0.97431 2.13223,-2.87301 2.7916,-4.21932 0.65938,-1.3463 1.63663,-3.64511 2.17166,-5.10846 0.53503,-1.46335 1.46097,-4.81575 2.05764,-7.44978 0.59668,-2.63402 1.27308,-6.54516 1.50311,-8.6914 0.23005,-2.14625 0.55177,-4.04799 0.71495,-4.22609 0.16958,-0.1851 0.45431,0.0908 0.66462,0.64391 0.20237,0.53225 0.36794,1.31031 0.36794,1.72901 0,0.4187 0.87,2.68315 1.93333,5.0321 1.06334,2.34897 2.88271,6.50938 4.04305,9.24535 1.16034,2.73598 3.15235,7.77184 4.42668,11.19081 1.27435,3.41896 2.60282,7.56595 2.95219,9.21554 0.42159,1.99061 0.6319,4.49053 0.62536,7.43363 l -0.01,4.43439 -0.7903,3.98878 c -0.43466,2.19382 -1.27604,5.62604 -1.86971,7.62715 -0.59369,2.00111 -1.53603,4.75585 -2.09411,6.12164 -0.55808,1.36579 -1.7173,4.39892 -2.57604,6.74028 -0.85874,2.34135 -2.00898,5.96822 -2.55608,8.0597 -0.5471,2.09148 -1.10454,3.73483 -1.23875,3.65189 -0.13421,-0.0829 -0.45133,-2.51254 -0.70471,-5.39908 -0.25338,-2.88655 -0.91185,-7.45689 -1.46326,-10.15632 -0.55141,-2.69944 -1.29625,-5.41094 -1.65522,-6.02557 -0.35897,-0.61464 -1.33026,-1.63434 -2.15842,-2.26601 -0.82818,-0.63166 -2.16702,-1.32654 -2.97521,-1.54415 -0.8082,-0.21763 -1.92649,-0.30428 -2.48509,-0.19256 -0.55861,0.11172 -1.72886,0.69383 -2.60056,1.29358 -0.8717,0.59974 -2.38308,2.227 -3.35862,3.61611 -1.01991,1.45231 -2.07437,3.49909 -2.48117,4.81618 -0.38911,1.25979 -0.84403,3.51115 -1.01094,5.00305 -0.16927,1.51289 -0.16794,3.70359 0.003,4.95348 0.16855,1.23253 0.67911,3.31249 1.13456,4.62213 0.45545,1.30965 1.50361,3.37591 2.32922,4.5917 0.82563,1.21578 2.43304,3.1629 3.57205,4.32692 1.36424,1.39422 2.86273,2.48695 4.39136,3.20229 1.27625,0.59723 3.32257,1.22753 4.54735,1.40064 1.32278,0.18698 3.63321,0.18077 5.6908,-0.0153 1.90514,-0.18153 4.76615,-0.66255 6.35777,-1.06891 1.59162,-0.40638 3.86876,-1.22896 5.0603,-1.82795 1.19156,-0.59899 3.28392,-1.80937 4.64972,-2.68974 1.36579,-0.88038 3.12181,-2.11959 3.90226,-2.75381 0.78045,-0.63422 3.0952,-2.27268 5.14389,-3.64101 2.04869,-1.36833 4.87159,-3.45324 6.2731,-4.63315 1.51349,-1.27416 2.61042,-1.97231 2.70139,-1.71933 0.0842,0.23428 -0.009,0.74523 -0.20762,1.13546 -0.19844,0.39022 -1.10893,1.53228 -2.02332,2.5379 -0.9144,1.00562 -2.32097,3.09398 -3.12573,4.64082 -0.80475,1.54684 -1.92977,4.07787 -2.50003,5.62449 -0.57026,1.54664 -1.61529,5.36487 -2.3223,8.48497 -0.70701,3.1201 -1.7041,7.50875 -2.21578,9.75255 -0.51168,2.2438 -1.62761,6.11726 -2.47985,8.60768 -0.85225,2.49043 -2.60502,6.64102 -3.89505,9.22353 -1.29003,2.58252 -3.59392,6.77078 -5.11973,9.30726 -1.52583,2.53647 -3.62322,5.83715 -4.66088,7.33484 -1.03766,1.49771 -3.27328,4.53083 -4.96806,6.74028 -1.69478,2.20945 -4.59852,6.04822 -6.45276,8.53059 -1.85423,2.48237 -5.57601,7.26226 -8.27061,10.62199 -2.69461,3.35972 -5.67359,6.95593 -6.61996,7.99157 -0.94636,1.03565 -1.9441,1.883 -2.21719,1.883 -0.2731,0 -0.49653,-0.12472 -0.49653,-0.27715 z m 54.42168,-99.23057 c 0.31961,-0.48778 0.52544,-0.88687 0.4574,-0.88687 -0.0681,0 -0.49865,0.39909 -0.9569,0.88687 -0.45825,0.48779 -0.66407,0.88688 -0.45738,0.88688 0.20667,0 0.63727,-0.39909 0.95688,-0.88688 z M 167.49978,125.02706 c 0.33535,-0.51181 0.43438,-0.82219 0.22008,-0.68974 -0.21431,0.13245 -0.55576,0.5512 -0.75878,0.93055 -0.20303,0.37936 -0.30206,0.68975 -0.22008,0.68975 0.0819,0 0.42343,-0.41875 0.75878,-0.93056 z m 216.46475,221.46399 c 3.02418,-3.7377 5.88143,-7.28701 6.34947,-7.88736 0.46804,-0.60036 1.43336,-2.67566 2.14518,-4.61177 0.71181,-1.93612 1.83993,-4.93946 2.50694,-6.6741 0.73053,-1.89987 1.36087,-4.36506 1.58533,-6.20004 0.20493,-1.67538 0.30766,-3.944 0.22828,-5.04136 -0.0919,-1.27023 -0.52418,-2.74978 -1.18975,-4.07189 -0.57498,-1.14219 -1.44452,-2.35572 -1.9323,-2.69676 -0.56602,-0.39574 -2.14431,-0.75567 -4.36249,-0.99486 l -3.4756,-0.37477 -4.14859,0.38607 c -2.28174,0.21233 -6.30505,0.77 -8.9407,1.23926 -2.63564,0.46924 -6.46829,1.42807 -8.51697,2.1307 -2.04869,0.70264 -4.9157,1.86262 -6.37114,2.57775 -1.45543,0.71513 -2.81183,1.58007 -3.01423,1.92208 l -0.36797,0.62186 0.86208,1.62503 c 0.47414,0.89378 2.14982,2.82723 3.72373,4.29655 1.57391,1.46932 4.08942,3.61108 5.59004,4.75945 1.50061,1.14838 2.83564,2.2615 2.96674,2.47361 0.13109,0.2121 0.0631,0.56091 -0.15115,0.77514 l -0.38951,0.38949 -3.28673,-1.72695 c -1.80772,-0.94982 -5.12259,-2.79074 -7.36639,-4.09092 -2.2438,-1.3002 -6.63385,-3.92401 -9.75566,-5.83072 -3.12181,-1.90669 -7.43204,-4.66681 -9.57828,-6.13359 -2.14625,-1.46677 -4.70045,-3.32033 -5.67602,-4.119 -0.97557,-0.79869 -3.07743,-2.62648 -4.67082,-4.06176 -1.59339,-1.43529 -3.92723,-3.83305 -5.18631,-5.32836 -1.25909,-1.49531 -3.48978,-4.55458 -4.95708,-6.79838 -1.46731,-2.2438 -3.45778,-5.51638 -4.42327,-7.2724 -0.96549,-1.75602 -2.51754,-4.78914 -3.449,-6.74027 -0.93146,-1.95113 -2.953,-6.41301 -4.49231,-9.91526 -1.53931,-3.50227 -3.7707,-8.13178 -4.95867,-10.28779 -1.18796,-2.15602 -3.17269,-5.4366 -4.4105,-7.29017 -1.23781,-1.85358 -3.46247,-4.76287 -4.94369,-6.4651 -1.48121,-1.70223 -4.08584,-4.30325 -5.78806,-5.78005 -1.70223,-1.4768 -5.70743,-4.38818 -8.90044,-6.46974 -3.19302,-2.08155 -5.61951,-3.84662 -5.3922,-3.9224 0.2273,-0.0757 2.20122,0.35085 4.38648,0.94803 2.18525,0.59719 5.33011,1.32633 6.98857,1.62033 1.65846,0.29399 4.6433,0.70645 6.63296,0.91658 1.98968,0.21012 7.81647,0.4 12.94842,0.42195 l 9.33085,0.0399 5.67602,-0.75106 c 3.12181,-0.41309 7.03294,-0.85199 8.6914,-0.97535 2.04756,-0.15229 4.1061,-0.0459 6.41365,0.33152 1.86904,0.30568 5.0618,1.13202 7.09502,1.83629 2.03321,0.70428 5.05371,1.99275 6.71221,2.86327 1.65849,0.87053 3.93099,2.25398 5.04999,3.07434 1.11901,0.82036 2.0369,1.71281 2.03976,1.98322 l 0.006,0.49166 -1.68507,-0.23729 c -0.92679,-0.13052 -2.88236,-0.33195 -4.3457,-0.44764 -1.55551,-0.12298 -3.5011,-0.0354 -4.68406,0.21082 -1.17962,0.24553 -2.85026,0.96568 -4.00616,1.72691 l -1.98275,1.30573 -1.04905,2.09932 -1.04903,2.09931 v 2.28373 2.28375 l 1.48837,2.89217 1.48837,2.89219 2.32521,2.30921 c 1.27886,1.27007 3.36285,2.98867 4.63109,3.81911 1.26823,0.83042 3.50316,1.97222 4.96651,2.53731 1.46335,0.56508 3.8911,1.28096 5.395,1.59085 1.50391,0.30988 3.73884,0.56107 4.96652,0.55819 1.22768,-0.003 3.25494,-0.24634 4.50502,-0.541 1.25008,-0.29466 3.21405,-1.0374 4.36437,-1.65052 1.15033,-0.61311 2.87003,-1.96658 3.82155,-3.00769 0.95889,-1.04919 2.09699,-2.80165 2.55328,-3.93158 l 0.82323,-2.03863 -0.004,-5.67602 -0.004,-5.67602 -1.15302,-3.31409 c -0.63416,-1.82274 -1.58871,-4.05767 -2.12123,-4.96651 -0.53252,-0.90884 -2.04563,-2.78681 -3.36249,-4.17325 -1.31685,-1.38645 -3.76968,-3.49916 -5.45073,-4.69491 -1.68106,-1.19577 -5.23457,-3.27855 -7.89669,-4.6284 -2.66213,-1.34986 -6.51643,-3.20226 -8.56512,-4.11645 -2.39399,-1.06827 -4.7389,-1.82912 -6.5629,-2.12944 -1.5609,-0.25701 -5.49771,-1.1573 -8.74847,-2.00065 l -5.91046,-1.53335 -1.23583,0.58932 -1.23582,0.58932 -0.65824,1.97472 c -0.36203,1.08609 -0.81115,2.01462 -0.99803,2.0634 -0.18688,0.0488 -0.86448,-1.58751 -1.50579,-3.6362 -0.6413,-2.04869 -1.40631,-4.97971 -1.70004,-6.5134 -0.3298,-1.72214 -0.53349,-4.84236 -0.53262,-8.15928 8.5e-4,-3.30851 0.27051,-7.41401 0.70226,-10.69203 0.38547,-2.9267 0.70387,-6.11946 0.70755,-7.09503 0.003,-0.99168 -0.26679,-2.3212 -0.61357,-3.01538 -0.3721,-0.74486 -0.92633,-1.28524 -1.38525,-1.35064 -0.47641,-0.0678 -1.12239,0.26669 -1.71241,0.88688 -0.52107,0.54774 -1.90601,2.9528 -3.07763,5.34458 -1.22326,2.49718 -2.28518,4.25291 -2.49417,4.12375 -0.23359,-0.14437 -0.27911,-1.32074 -0.12709,-3.28443 0.13028,-1.68273 0.70853,-8.40738 1.285,-14.94367 0.57646,-6.53629 1.29481,-13.64019 1.59631,-15.78643 0.30151,-2.14625 0.85836,-5.23362 1.23744,-6.86086 0.37909,-1.62722 1.17326,-4.16737 1.76485,-5.64477 0.59158,-1.4774 1.94443,-4.2342 3.00635,-6.12622 1.06191,-1.89202 3.13859,-5.23548 4.61484,-7.42992 1.47626,-2.19442 3.9359,-6.08816 5.46588,-8.65274 1.52998,-2.56458 3.54056,-6.17944 4.46794,-8.03301 0.92739,-1.85358 1.97274,-4.20214 2.32299,-5.21903 0.35026,-1.0169 0.74192,-2.54963 0.87035,-3.40609 l 0.23352,-1.55719 -0.97002,-2.44731 c -0.53351,-1.346014 -1.28775,-2.900967 -1.67611,-3.455454 l -0.70608,-1.008147 0.81235,0.47602 c 0.4468,0.261818 1.37062,1.081227 2.05295,1.820927 0.68232,0.73969 2.53309,2.307034 4.11282,3.482984 1.57973,1.17595 4.03536,3.04514 5.45696,4.15375 1.42159,1.1086 3.49688,2.53444 4.61177,3.16851 1.11487,0.63406 3.23162,1.62121 4.7039,2.19365 1.47226,0.57245 4.5852,1.51616 6.91765,2.09716 2.33243,0.58099 5.6591,1.23893 7.39259,1.4621 1.73349,0.22316 4.04824,0.2968 5.14389,0.16362 1.09565,-0.13316 2.4284,-0.46395 2.96165,-0.73507 0.53326,-0.27111 1.23263,-1.00165 1.55416,-1.62342 l 0.58459,-1.13048 -0.18859,-4.98297 -0.18861,-4.98297 -0.93602,-3.157423 c -0.51481,-1.736585 -1.463,-4.290794 -2.10709,-5.676019 -0.64409,-1.385226 -2.36579,-4.114979 -3.82601,-6.066111 -1.46021,-1.951132 -4.17457,-5.223712 -6.03191,-7.2724 -1.85734,-2.048688 -4.96157,-5.241449 -6.8983,-7.095024 -1.93672,-1.853575 -5.39391,-4.790014 -7.68266,-6.525418 -2.28873,-1.735405 -4.16134,-3.295121 -4.16134,-3.466035 0,-0.170913 0.67846,0.03194 1.50769,0.45079 0.82924,0.418849 2.94444,1.609557 4.70046,2.646018 1.75602,1.036461 3.91113,2.161331 4.78914,2.499712 0.87801,0.338381 2.39457,1.120149 3.37014,1.737264 0.97556,0.617114 3.58661,2.584224 5.80233,4.371356 2.21572,1.78713 5.24884,3.995241 6.74027,4.906913 1.49143,0.911672 4.70717,2.961976 7.14609,4.556233 2.43891,1.594255 7.30787,5.172598 10.81991,7.951871 3.51204,2.779276 7.90208,6.448379 9.75566,8.153553 1.85357,1.70518 5.04633,4.54538 7.09502,6.31154 2.04869,1.76616 4.28362,3.80396 4.96652,4.52844 0.6829,0.72449 2.19946,2.0803 3.37014,3.01291 1.17068,0.93261 2.84688,2.07369 3.72488,2.53573 l 1.59638,0.84006 2.66064,-0.0581 c 1.46335,-0.0319 4.09738,-0.20375 5.85339,-0.38182 1.75602,-0.17809 3.39231,-0.25229 3.6362,-0.16491 0.2439,0.0874 0.44344,0.38457 0.44344,0.66037 0,0.27582 -0.74303,1.01702 -1.6512,1.64712 -0.90816,0.6301 -2.49515,1.82521 -3.52665,2.65582 -1.06576,0.8582 -2.72044,2.78015 -3.83272,4.45179 -1.0765,1.61789 -2.43916,3.97143 -3.02813,5.23009 -0.58897,1.25867 -1.37998,3.49726 -1.7578,4.97465 -0.37784,1.4774 -0.87481,4.8388 -1.1044,7.46979 l -0.41743,4.78362 0.40347,3.37923 c 0.22191,1.85856 1.26948,6.46219 2.32792,10.23027 1.05846,3.76808 2.58411,10.14051 3.39035,14.16095 0.80625,4.02044 1.99158,8.9163 2.63407,10.87969 0.6425,1.96339 1.97506,5.23597 2.96122,7.2724 0.98618,2.03643 2.60311,4.76867 3.59318,6.07164 0.99007,1.30297 3.96455,4.44935 6.60995,6.99199 2.6454,2.54262 4.70716,4.78905 4.5817,4.99205 -0.12546,0.203 -0.38314,0.36909 -0.57262,0.36909 -0.18947,0 -3.17172,-1.78324 -6.62722,-3.96278 -3.53839,-2.23182 -8.29866,-4.87257 -10.89791,-6.04561 -2.53836,-1.14556 -7.32904,-3.12059 -10.64596,-4.38897 -3.31693,-1.26838 -7.70697,-2.95894 -9.75566,-3.75682 -2.04869,-0.79787 -5.80018,-2.43757 -8.33665,-3.64379 -2.53648,-1.20621 -6.20815,-3.12804 -8.15928,-4.27072 -1.95113,-1.14269 -4.50534,-2.71751 -5.67602,-3.4996 -1.17068,-0.7821 -4.88452,-3.48104 -8.25297,-5.99764 -3.36844,-2.5166 -6.94768,-5.3326 -7.95386,-6.25779 -1.03671,-0.95325 -1.72396,-1.85277 -1.58606,-2.0759 l 0.24335,-0.39375 3.63087,1.26931 3.63088,1.2693 3.72489,0.0135 3.72489,0.0135 1.06425,-0.56484 c 0.58534,-0.31067 1.42976,-0.95622 1.87649,-1.43457 0.44673,-0.47834 0.90522,-1.44266 1.01886,-2.14295 0.11364,-0.70028 0.10188,-1.69044 -0.026,-2.20035 -0.12799,-0.50991 -0.87806,-1.62723 -1.66683,-2.48296 -0.78878,-0.85572 -2.18021,-2.03115 -3.09206,-2.61206 -0.91184,-0.58092 -2.65061,-1.38791 -3.86392,-1.79331 -1.49235,-0.49879 -3.11488,-0.73714 -5.0175,-0.73714 -1.79819,0 -3.62992,0.25269 -5.08123,0.70095 -1.35099,0.41727 -2.86493,1.21069 -3.74093,1.96052 -0.81121,0.69436 -1.8791,2.12108 -2.37976,3.17939 -0.49953,1.0559 -1.17018,3.00724 -1.49036,4.33632 -0.36782,1.52689 -0.5864,3.98365 -0.59372,6.6735 l -0.0116,4.25701 0.77029,2.09293 c 0.42365,1.1511 1.35468,3.14657 2.06895,4.43439 0.74216,1.33809 2.38014,3.40561 3.82239,4.82472 1.38804,1.3658 4.03669,3.55728 5.88588,4.86996 1.84919,1.31269 5.67692,3.57292 8.50606,5.02276 2.82914,1.44982 6.58063,3.21492 8.33665,3.92244 1.75602,0.70753 4.70932,1.66816 6.5629,2.13473 1.85357,0.46659 5.04633,1.10091 7.09502,1.40959 2.04869,0.30867 6.59837,0.88318 10.11041,1.27667 3.51204,0.3935 7.42317,0.87874 8.69141,1.07832 1.26823,0.19959 3.30379,0.59246 4.52346,0.87304 1.21967,0.28059 3.69406,1.07881 5.49865,1.77383 1.80458,0.69502 4.3187,1.87003 5.58694,2.61114 1.26824,0.74111 4.30136,2.51817 6.74027,3.94903 2.43892,1.43084 5.87114,3.59615 7.62715,4.8118 1.75602,1.21564 3.69796,2.78332 4.31543,3.48373 0.61747,0.70041 1.07858,1.27347 1.02468,1.27347 -0.0539,0 -1.43711,-0.62547 -3.0738,-1.38994 -1.6367,-0.76446 -4.95237,-1.98396 -7.36817,-2.70996 l -4.39238,-1.32003 -3.29255,0.19643 c -2.23541,0.13336 -3.8435,0.4394 -5.00854,0.95318 -0.94379,0.41622 -2.40761,1.42758 -3.25295,2.24747 -0.84533,0.8199 -1.86078,2.11772 -2.25655,2.88405 -0.39577,0.76633 -0.79978,2.28289 -0.89779,3.37014 l -0.17822,1.97682 1.32047,3.54751 c 0.72627,1.95113 1.97431,4.82462 2.77342,6.38552 0.98002,1.91426 2.20872,3.59535 3.77493,5.16479 l 2.32198,2.32679 2.05437,0.63751 c 1.12991,0.35063 3.2052,0.74031 4.61177,0.86597 l 2.55739,0.22847 0.11172,0.97005 c 0.0614,0.53352 -0.20704,2.13191 -0.59662,3.55197 -0.38959,1.42005 -1.77039,5.13412 -3.06845,8.25348 -1.29805,3.11936 -3.25434,7.34776 -4.34731,9.39645 -1.09296,2.04869 -3.92496,6.59838 -6.29334,10.11041 -2.36836,3.51204 -5.8312,8.62046 -7.69518,11.35204 -1.86398,2.73159 -4.94652,7.52073 -6.85009,10.64254 -1.90358,3.12181 -4.4595,7.19258 -5.67984,9.04615 -1.22033,1.85358 -3.87512,5.46431 -5.89953,8.02388 -2.02441,2.55955 -5.90378,7.10923 -8.62082,10.11041 -2.71705,3.00116 -7.34426,7.81364 -10.28268,10.69436 -2.93842,2.88074 -6.00694,5.6994 -6.81895,6.2637 l -1.47637,1.02598 z m 638.48007,5.07274 c -0.126,-0.20368 0.02,-0.7225 0.3235,-1.15294 0.3038,-0.43042 1.3153,-1.77318 2.2478,-2.9839 0.9324,-1.21073 2.5864,-3.68512 3.6755,-5.49864 1.0891,-1.81354 2.7895,-5.21298 3.7784,-7.55434 0.989,-2.34136 2.2849,-5.79 2.8796,-7.66365 0.5947,-1.87364 1.4822,-5.57713 1.9722,-8.22998 0.4901,-2.65285 0.9993,-6.87377 1.1316,-9.3798 0.1586,-3.00524 0.097,-5.38577 -0.1837,-6.99247 -0.2333,-1.33982 -0.6572,-2.88666 -0.942,-3.43744 -0.2849,-0.55077 -0.9862,-1.24357 -1.5586,-1.53954 -0.592,-0.30615 -1.9611,-0.53813 -3.1759,-0.53813 -1.1746,0 -3.8564,0.25413 -5.9597,0.56473 -2.1035,0.31061 -5.614,1.0246 -7.8014,1.58664 -2.1875,0.56204 -5.233,1.50618 -6.7679,2.09811 -1.5349,0.59191 -4.1779,1.90313 -5.8732,2.91382 -1.6954,1.01067 -6.22947,4.37611 -10.07563,7.47874 -3.84617,3.10263 -9.60645,7.39978 -12.80065,9.54921 l -5.80761,3.90808 -10.51826,5.06756 c -5.78499,2.78716 -12.32273,5.74177 -14.52839,6.56579 -2.20556,0.82402 -4.10403,1.40432 -4.21888,1.28955 -0.11474,-0.11479 -0.0554,-0.4121 0.13126,-0.66071 0.18691,-0.2486 2.49966,-3.16585 5.13946,-6.48278 2.63979,-3.31692 6.23541,-8.18588 7.99032,-10.81991 1.7548,-2.63403 4.20203,-6.46534 5.43812,-8.51403 1.23608,-2.04869 4.26178,-7.71584 6.72386,-12.59366 2.46198,-4.87783 5.13935,-10.5644 5.94962,-12.63681 0.81028,-2.07241 1.80125,-5.05231 2.20201,-6.622 0.40963,-1.60444 0.72857,-3.993 0.72835,-5.45551 l -2.2e-4,-2.60153 -1.0167,-2.149 -1.01669,-2.14901 -2.29901,-1.82936 c -1.26436,-1.00615 -3.11882,-2.24114 -4.12077,-2.74444 -1.00206,-0.50328 -3.44452,-1.22425 -5.4278,-1.60216 -1.98328,-0.37791 -3.69152,-0.77265 -3.79606,-0.87719 -0.10421,-0.10454 -0.041,-0.33383 0.14101,-0.50953 0.18214,-0.17571 2.06244,-0.49107 4.17842,-0.70079 l 3.84738,-0.38134 2.11986,-1.12989 c 1.16603,-0.62144 2.73225,-1.82553 3.48067,-2.67575 0.74841,-0.85022 2.00623,-2.78655 2.7951,-4.30294 0.78888,-1.5164 1.75458,-3.94533 2.14592,-5.39764 0.39144,-1.45231 0.95849,-3.99748 1.26036,-5.65594 0.30176,-1.65846 0.78611,-4.82861 1.07623,-7.04477 0.29012,-2.21616 0.92291,-7.96313 1.40603,-12.77105 0.48313,-4.80791 1.04497,-11.29588 1.2485,-14.41769 0.20343,-3.12181 0.46927,-11.26335 0.59067,-18.09231 0.145,-8.15708 0.0809,-14.15455 -0.18691,-17.48361 -0.22416,-2.78703 -0.57149,-5.82015 -0.77192,-6.74028 -0.20032,-0.92012 -0.72236,-2.39132 -1.15993,-3.26933 l -0.79553,-1.59638 -1.66999,-0.83493 -1.66988,-0.83493 -2.35688,0.41045 c -1.29628,0.22573 -3.17291,0.82325 -4.17021,1.32778 -0.99729,0.50453 -2.70819,1.60516 -3.80215,2.44583 -1.09386,0.84066 -3.68077,3.30668 -5.74864,5.48003 -2.06797,2.17336 -3.92676,3.84845 -4.13063,3.72244 -0.20387,-0.12601 -0.37072,-0.50944 -0.37072,-0.85205 0,-0.34261 0.75828,-1.67879 1.68507,-2.96929 0.92679,-1.29049 3.59197,-4.79215 5.92257,-7.78147 2.33061,-2.98932 5.49266,-7.01236 7.02674,-8.9401 1.53396,-1.92774 3.55582,-4.64159 4.49303,-6.03077 0.9371,-1.38919 2.18638,-3.48363 2.77593,-4.65431 0.58966,-1.17067 1.48342,-3.43306 1.98616,-5.02752 0.50264,-1.59445 1.08022,-4.2243 1.28332,-5.84408 0.20309,-1.6198 0.36683,-6.0622 0.36395,-9.87203 l -0.0111,-6.92696 -0.52536,-2.22836 c -0.2889,-1.22559 -0.85473,-2.87396 -1.25726,-3.66303 l -0.7319,-1.43467 -1.29096,-0.5394 c -0.83366,-0.34834 -1.77908,-0.46135 -2.66906,-0.31904 -0.75795,0.1212 -2.16853,0.62092 -3.13467,1.11048 -0.96603,0.48956 -2.70886,1.84248 -3.87288,3.0065 -1.16403,1.16402 -2.27607,2.11639 -2.47118,2.11639 -0.19511,0 -0.35475,-0.26488 -0.35475,-0.58862 0,-0.32374 0.93987,-2.35913 2.0886,-4.52308 1.14873,-2.16395 3.52334,-6.613424 5.27681,-9.887722 1.75358,-3.274295 3.83741,-7.584523 4.63072,-9.578281 0.79332,-1.993757 2.56929,-7.376508 3.9465,-11.961668 1.37732,-4.585159 3.2085,-11.529414 4.06944,-15.431678 l 1.56523,-7.095025 0.20054,-4.079639 c 0.10975,-2.243802 0.42593,-4.957648 0.70152,-6.030771 l 0.50098,-1.951131 0.0388,1.844275 c 0.0222,1.014351 0.28602,3.728198 0.58756,6.03077 0.30154,2.302573 1.0913,6.740705 1.75502,9.862515 0.66372,3.121812 1.54671,7.811396 1.96199,10.421301 0.4154,2.609903 1.23095,6.361397 1.81235,8.336653 0.5813,1.975256 2.0322,5.580722 3.2239,8.012147 l 2.1669,4.420775 1.6367,1.636711 1.6366,1.636712 1.7295,0.43548 c 1.0541,0.265409 2.5049,0.342153 3.7151,0.196508 1.092,-0.131433 2.5443,-0.467239 3.2272,-0.746236 0.6829,-0.278997 1.7764,-1.018 2.43,-1.642229 0.6536,-0.624229 1.9001,-2.052881 2.7701,-3.174782 0.9766,-1.259523 1.8494,-2.039819 2.2816,-2.039819 0.3849,0 0.7842,0.219831 0.8873,0.488513 0.1031,0.268683 -0.1413,2.192444 -0.5432,4.275024 -0.402,2.08258 -0.7185,4.456866 -0.7035,5.276197 0.015,0.81932 0.2186,2.124638 0.4526,2.900701 0.28,0.929005 0.8339,1.686421 1.6216,2.217195 l 1.1963,0.806172 2.342,-0.0055 c 1.2882,-0.0033 4.4713,-0.476919 7.0735,-1.052691 2.6022,-0.575761 6.673,-1.70448 9.0462,-2.508257 2.3731,-0.803778 5.9111,-2.231862 7.8623,-3.173527 1.9511,-0.941662 5.1438,-2.713719 7.095,-3.937904 1.9511,-1.224183 6.0219,-4.002862 9.0461,-6.174839 3.0243,-2.171978 7.2764,-5.294911 9.4494,-6.939853 2.1728,-1.64494 5.2059,-3.694272 6.7402,-4.55407 1.5342,-0.859797 4.5456,-2.730622 6.6919,-4.157389 2.1462,-1.426767 5.0995,-3.636844 6.5629,-4.911283 1.4633,-1.274439 4.2402,-3.634022 6.171,-5.243517 1.9306,-1.609497 4.9637,-4.161343 6.7403,-5.670769 1.7764,-1.509428 4.8019,-4.031874 6.7231,-5.605437 1.9213,-1.573562 3.6773,-2.799737 3.9022,-2.724834 0.2251,0.07491 0.4592,0.39452 0.5205,0.710259 0.061,0.315738 -1.505,3.255814 -3.4805,6.533501 -1.9756,3.277687 -4.6186,7.555811 -5.8735,9.506943 -1.2548,1.951132 -2.9994,5.183077 -3.8768,7.182101 -0.8773,1.999025 -2.0825,5.271605 -2.678,7.2724 -0.5957,2.000796 -1.8629,7.548943 -2.8163,12.329216 -0.9533,4.780272 -2.2336,10.926335 -2.8451,13.657919 -0.6115,2.731583 -2.3099,10.952943 -3.7741,18.269683 -1.4643,7.31674 -3.6237,17.13448 -4.7988,21.8172 -1.175,4.68272 -2.8302,10.59978 -3.678,13.14902 -0.8479,2.54924 -2.2018,6.30074 -3.0089,8.33665 -0.8069,2.03592 -3.0636,6.81461 -5.0148,10.61931 -1.9511,3.80471 -3.696,7.06931 -3.8772,7.25467 -0.2081,0.21274 -0.4599,0.2069 -0.6825,-0.0157 -0.2339,-0.23391 -0.06,-1.50855 0.5171,-3.78229 0.4785,-1.88621 1.004,-4.70077 1.1679,-6.25458 0.1638,-1.5538 0.1746,-4.23206 0.024,-5.95169 -0.1508,-1.71961 -0.6135,-4.24388 -1.0284,-5.60949 -0.4147,-1.3656 -1.0685,-3.09936 -1.453,-3.8528 -0.3843,-0.75342 -1.3659,-2.0942 -2.1813,-2.97951 -0.8153,-0.88529 -3.6056,-3.01669 -6.2006,-4.73644 -2.5949,-1.71974 -5.5482,-3.51927 -6.5629,-3.99895 -1.0145,-0.47968 -2.8824,-1.15648 -4.1507,-1.504 -1.464,-0.40119 -3.5362,-0.63097 -5.676,-0.62941 l -3.3701,0.002 -1.7738,0.63 c -0.9755,0.3465 -2.9206,1.33845 -4.3224,2.20433 -1.4018,0.86588 -3.3031,2.40761 -4.2251,3.42606 -0.922,1.01844 -2.2775,3.12882 -3.0123,4.68974 -0.7346,1.5609 -1.6696,4.11511 -2.0778,5.67602 -0.4082,1.5609 -0.9048,4.27312 -1.1038,6.02714 -0.1989,1.75401 -0.2606,4.30822 -0.1371,5.67602 0.1235,1.36779 0.4549,3.52097 0.7363,4.78485 0.2813,1.26389 0.9133,2.98357 1.4044,3.82153 0.4912,0.83795 1.4974,1.9236 2.2363,2.41256 0.7656,0.50664 2.0923,0.97147 3.0845,1.08074 l 1.741,0.19171 1.5964,-0.82262 1.5964,-0.82261 1.5001,-2.23804 c 0.8252,-1.23092 1.7627,-3.06675 2.0834,-4.07963 l 0.5832,-1.84161 0.1765,-6.65158 0.1765,-6.65159 h 0.446 c 0.2453,0 0.6163,0.20505 0.8243,0.45567 0.2079,0.25061 1.4123,3.00437 2.6764,6.11946 1.2641,3.11508 3.05,7.33999 3.9689,9.38868 0.9188,2.04869 2.7577,6.78059 4.0863,10.51533 1.3286,3.73476 2.6645,8.10253 2.9687,9.70616 0.3042,1.60364 0.5531,4.79178 0.5531,7.08476 v 4.16904 l -0.8928,4.39449 c -0.4909,2.41696 -1.541,6.70923 -2.3334,9.53837 -0.7923,2.82914 -2.0029,6.97973 -2.6901,9.22353 -0.6873,2.24381 -1.9704,5.83566 -2.8513,7.98192 -0.881,2.14624 -1.9851,4.66054 -2.4538,5.58733 -0.4686,0.92679 -1.078,1.68507 -1.3543,1.68507 -0.2763,0 -0.585,-0.27937 -0.6861,-0.62082 -0.1009,-0.34144 -0.4291,-2.5478 -0.7289,-4.903 -0.2997,-2.3552 -0.9319,-5.78741 -1.4048,-7.62715 -0.473,-1.83973 -1.1173,-3.94729 -1.4318,-4.68346 -0.3145,-0.73618 -0.8874,-1.6541 -1.2732,-2.03982 -0.4351,-0.43517 -1.1792,-0.70133 -1.9606,-0.70133 -0.6925,0 -1.6925,0.22404 -2.2219,0.49788 -0.5296,0.27382 -1.7825,1.36458 -2.7844,2.42389 -1.0018,1.05932 -2.2171,2.71102 -2.7004,3.67046 -0.4832,0.95943 -1.0583,2.59038 -1.2777,3.62434 -0.2194,1.03394 -0.3988,3.36306 -0.3988,5.17583 0,2.09596 0.2495,4.2715 0.6853,5.97554 0.3769,1.47378 1.1904,3.68013 1.8077,4.903 0.6174,1.22289 1.9098,3.0559 2.872,4.07337 1.1045,1.16784 2.5635,2.22592 3.957,2.86957 l 2.2074,1.01962 3.9022,-0.0344 3.9023,-0.0344 3.1928,-0.9568 c 1.756,-0.52624 4.9187,-1.82214 7.0282,-2.87976 2.1097,-1.05762 4.9832,-2.67188 6.3856,-3.58722 1.447,-0.94441 4.5469,-3.67354 7.1667,-6.30946 2.5393,-2.55484 5.9333,-6.28908 7.5426,-8.29829 1.6091,-2.00922 3.4751,-4.72307 4.1466,-6.03077 0.6715,-1.30771 1.9426,-3.49513 2.8247,-4.86092 0.8821,-1.36579 1.6071,-2.2438 1.6111,-1.95113 0,0.29267 -0.6114,2.1285 -1.3675,4.07964 -0.756,1.95113 -2.0217,6.10172 -2.8125,9.22354 -0.7907,3.12181 -2.324,9.83451 -3.4072,14.91713 -1.0834,5.08261 -2.6158,11.46813 -3.4054,14.19005 -0.7898,2.72191 -2.0911,6.94441 -2.8918,9.38332 -0.8006,2.43892 -2.2274,6.38078 -3.1706,8.7597 -0.9431,2.37892 -2.5287,6.13041 -3.5237,8.33665 -0.9949,2.20624 -2.8603,5.92701 -4.1452,8.26837 -1.2849,2.34135 -3.297,5.69375 -4.4713,7.44977 -1.1744,1.75602 -3.3122,4.75131 -4.7506,6.6562 -1.4384,1.90489 -3.604,4.53892 -4.8124,5.85339 -1.2084,1.31448 -4.3539,4.70454 -6.9898,7.53348 -2.6361,2.82893 -6.9253,7.37861 -9.5316,10.11041 -2.6065,2.73179 -7.2785,7.40137 -10.3824,10.37685 -3.104,2.97547 -5.7911,5.40995 -5.9715,5.40995 -0.1803,0 -0.4309,-0.16666 -0.5568,-0.37036 z m 100.6268,-308.174513 0.4869,-0.620814 -0.6208,0.486877 c -0.3415,0.267782 -0.6208,0.547148 -0.6208,0.620815 0,0.07367 0.06,0.133937 0.1339,0.133937 0.073,0 0.3531,-0.279367 0.6208,-0.620815 z M 839.82766,338.38665 c -0.27866,-0.45096 -1.26399,-2.11504 -2.18965,-3.69796 -0.92565,-1.58294 -2.48799,-3.95297 -3.47188,-5.26676 -0.98389,-1.31379 -3.59196,-3.99576 -5.79571,-5.95994 -2.20374,-1.96418 -5.41218,-4.57627 -7.12986,-5.80464 -1.71769,-1.22838 -4.63962,-3.02219 -6.49319,-3.98626 -1.85358,-0.96408 -5.51474,-2.6635 -8.13593,-3.77649 -2.62118,-1.11298 -6.22411,-2.39355 -8.00651,-2.84569 -1.78239,-0.45214 -4.34711,-0.92929 -5.69936,-1.06034 -1.38006,-0.13374 -3.7815,-0.0578 -5.47405,0.17312 -1.65846,0.22626 -4.44879,0.88893 -6.20074,1.47257 -1.75195,0.58365 -4.0667,1.55948 -5.14389,2.16851 -1.07719,0.60903 -3.08544,1.86122 -4.46275,2.78264 -1.37732,0.92143 -4.64428,2.88831 -7.25993,4.37085 -3.22701,1.82906 -5.12631,2.69553 -5.90864,2.69553 -0.7768,0 -1.27274,-0.22386 -1.52017,-0.68619 -0.20197,-0.3774 -0.36723,-1.3815 -0.36723,-2.23134 0,-0.84985 -0.24776,-2.49663 -0.55058,-3.65952 -0.30281,-1.1629 -0.92714,-2.75706 -1.38738,-3.54259 -0.46026,-0.78552 -2.23182,-2.91013 -3.93681,-4.72132 -2.01129,-2.13659 -3.73544,-3.6116 -4.90944,-4.20002 -0.99521,-0.49881 -3.00675,-1.70785 -4.47009,-2.68675 -1.46335,-0.97891 -3.09964,-2.18764 -3.6362,-2.68609 -0.53657,-0.49844 -0.97557,-1.19567 -0.97557,-1.54939 0,-0.35372 0.23294,-0.64313 0.51764,-0.64313 0.2847,0 1.72137,0.17903 3.1926,0.39785 l 2.67498,0.39785 1.06638,-0.44171 c 0.58652,-0.24294 1.64329,-1.2276 2.34838,-2.18813 0.70509,-0.96053 1.59741,-2.73672 1.98294,-3.9471 l 0.70093,-2.20066 -0.20156,-3.54751 c -0.1118,-1.96739 -0.59491,-5.06901 -1.08463,-6.96336 -0.48569,-1.87872 -1.35216,-4.59256 -1.92549,-6.03077 -0.57335,-1.43822 -1.64043,-3.97185 -2.37131,-5.63031 -0.73087,-1.65846 -2.21124,-4.61177 -3.2897,-6.5629 -1.07846,-1.95113 -3.7466,-6.36162 -5.9292,-9.80108 -2.1826,-3.43945 -5.08564,-7.7597 -6.4512,-9.60056 -1.36557,-1.84085 -3.48753,-4.42101 -4.71546,-5.73369 -1.22795,-1.31268 -2.7271,-2.73939 -3.33144,-3.17048 l -1.0988,-0.7838 h -2.30588 -2.30588 l -0.1092,-0.94449 c -0.0662,-0.57213 0.34797,-1.76096 1.05045,-3.01539 0.63783,-1.13898 1.97626,-3.34799 2.97426,-4.9089 0.998,-1.56091 2.77598,-4.51421 3.95107,-6.5629 1.17508,-2.04869 3.42196,-6.11946 4.99304,-9.04615 1.57108,-2.9267 3.60913,-7.23693 4.52897,-9.57829 0.91985,-2.34135 2.20224,-5.89021 2.84975,-7.88634 0.64751,-1.99613 1.67034,-5.78542 2.27295,-8.42065 0.60261,-2.63522 1.33385,-6.3499 1.62497,-8.25484 0.29112,-1.90492 0.62673,-7.05537 0.74578,-11.44541 0.12593,-4.64375 0.0499,-10.57824 -0.18178,-14.19005 -0.21904,-3.41448 -0.5642,-8.5229 -0.76703,-11.35204 -0.20281,-2.82914 -0.84698,-8.81557 -1.43145,-13.30317 -0.58449,-4.4876 -1.55541,-10.63367 -2.15761,-13.65792 -0.60219,-3.02426 -1.81204,-7.893216 -2.68854,-10.819913 -0.8765,-2.926696 -1.89509,-5.913549 -2.26352,-6.637451 -0.36843,-0.723901 -0.66988,-1.562001 -0.66988,-1.862444 0,-0.300442 0.16906,-0.546259 0.37569,-0.546259 0.20869,0 0.25513,-0.197102 0.10443,-0.443439 -0.14917,-0.243891 0.30726,0.03548 1.0143,0.620815 0.70704,0.585339 3.41378,3.353444 6.015,6.151339 2.6012,2.797901 5.92675,6.052521 7.3901,7.232479 1.46335,1.179958 3.7781,2.679063 5.14389,3.331323 1.36579,0.65227 3.75591,1.44753 5.31137,1.76724 1.76681,0.36315 3.67986,0.51292 5.09785,0.39911 1.46439,-0.11755 2.60075,-0.42781 3.20266,-0.87442 0.5131,-0.38073 1.36237,-1.31549 1.88725,-2.07725 0.52488,-0.76176 1.43472,-2.593695 2.02187,-4.070956 0.58714,-1.477262 1.23404,-3.712194 1.43756,-4.966517 0.2035,-1.254321 0.37028,-3.637506 0.37061,-5.295968 3.2e-4,-1.658462 -0.22937,-4.531947 -0.51043,-6.385522 -0.28105,-1.853575 -0.83538,-4.407784 -1.23185,-5.676019 -0.39647,-1.268236 -1.69897,-3.982083 -2.89445,-6.030771 -1.19548,-2.048688 -2.63321,-4.633371 -3.19495,-5.743739 -0.56176,-1.110368 -1.24397,-2.664949 -1.51603,-3.454624 l -0.49467,-1.435774 1.28737,1.031585 c 0.70806,0.567371 2.02203,1.802676 2.91991,2.745121 0.8979,0.942447 3.18018,3.744533 5.07174,6.226859 1.89154,2.482326 6.30847,8.788029 9.81539,14.012673 3.5069,5.224644 7.80835,11.35277 9.55874,13.618067 1.75041,2.265297 5.796,7.255555 8.99019,11.089475 3.1942,3.83392 8.0246,9.40083 10.73424,12.37092 2.70962,2.97009 7.56062,8.0492 10.77999,11.28692 3.21937,3.23771 7.21032,6.92411 8.86878,8.19197 1.65846,1.26787 4.02905,2.98857 5.26798,3.82376 1.23892,0.83521 4.24196,2.48022 6.67341,3.65561 2.64245,1.27737 4.64416,2.47789 4.976,2.98434 l 0.55516,0.84729 -2.52602,5.22637 c -1.3893,2.87449 -2.85117,6.50347 -3.24859,8.06437 -0.39742,1.56091 -0.98717,4.35457 -1.31056,6.20815 l -0.58799,3.37013 -0.009,10.28779 c -0.004,5.65828 0.19425,12.84199 0.44272,15.9638 0.24848,3.12181 0.99768,9.98625 1.66489,15.25431 0.6672,5.26805 1.46347,11.01502 1.76948,12.77104 0.30601,1.75602 1.11831,5.74697 1.80511,8.86879 0.68681,3.12181 1.81419,7.66379 2.50532,10.0933 0.69111,2.42951 1.7835,5.79805 2.42747,7.48564 0.6441,1.68761 1.68596,4.08987 2.31553,5.33838 0.62946,1.24851 2.43415,4.41855 4.01057,7.04452 1.57632,2.62598 4.18607,6.58289 5.79941,8.79312 1.61323,2.21024 3.09542,4.32153 3.29353,4.69177 0.19811,0.37023 0.36029,0.91748 0.36029,1.21612 0,0.29863 -0.31207,0.70994 -0.69331,0.91402 l -0.69343,0.37106 -1.34639,-0.5075 c -0.74066,-0.27914 -2.86307,-1.1 -4.71664,-1.82416 l -3.37014,-1.31663 -2.58514,0.0213 -2.58502,0.0213 -1.57499,0.76244 c -0.86623,0.41933 -2.00247,1.26882 -2.52495,1.88774 -0.52249,0.61891 -1.57564,2.48222 -2.34034,4.14069 -0.76469,1.65846 -1.61803,3.88702 -1.89631,4.95236 -0.27827,1.06534 -0.50595,3.24631 -0.50595,4.84662 0,1.6003 0.22488,4.08106 0.49972,5.5128 0.27484,1.43173 1.0817,4.59863 1.79301,7.03754 0.71131,2.43892 1.52315,5.95095 1.80407,7.80453 l 0.51078,3.37014 -0.0333,9.4009 c -0.0183,5.1705 -0.14363,9.80001 -0.27852,10.28779 -0.14764,0.53394 -0.54817,0.93081 -1.00646,0.99729 -0.49154,0.0713 -0.94074,-0.18007 -1.26787,-0.7095 z M 795.94555,266.6878 c 1.07312,-0.51014 2.9001,-1.6927 4.05996,-2.62793 1.15986,-0.93522 3.207,-3.13714 4.5492,-4.89316 1.38544,-1.8126 3.34568,-5.03299 4.53466,-7.44977 1.15187,-2.34136 2.73008,-6.17268 3.50714,-8.51403 0.77706,-2.34136 1.68746,-5.77358 2.0231,-7.62716 l 0.61026,-3.37014 0.0248,-6.91765 0.0248,-6.91765 -0.65659,-3.01539 c -0.36113,-1.65846 -1.1377,-4.53194 -1.72573,-6.38552 -0.58803,-1.85357 -1.64068,-4.53054 -2.33923,-5.94881 -0.69855,-1.41827 -2.03121,-3.43264 -2.96147,-4.47637 -0.93025,-1.04372 -2.24028,-2.15815 -2.91118,-2.47652 -0.6709,-0.31836 -1.87929,-0.57884 -2.68529,-0.57884 -0.80601,0 -1.98662,0.21775 -2.62359,0.48389 -0.63695,0.26614 -1.56091,0.96259 -2.05323,1.54769 -0.49232,0.58508 -1.17413,2.00362 -1.51514,3.15231 -0.34102,1.14868 -0.76543,2.44769 -0.94315,2.8867 -0.17772,0.439 -0.54618,0.79819 -0.81878,0.79819 -0.27259,0 -1.31331,-1.41678 -2.31269,-3.14841 -0.99938,-1.73162 -2.23448,-4.24592 -2.74468,-5.58733 l -0.92763,-2.43893 10e-4,-3.19276 c 8.7e-4,-1.75602 0.29548,-4.6295 0.65471,-6.38552 l 0.65313,-3.19276 v -7.80453 -7.80452 l -0.62821,-3.19276 c -0.34551,-1.75602 -0.95551,-4.23041 -1.35556,-5.49865 -0.40005,-1.26823 -1.2321,-3.32809 -1.84899,-4.57744 -0.61689,-1.24937 -1.79538,-3.02363 -2.61887,-3.94279 -0.9115,-1.01739 -2.2194,-1.98186 -3.34316,-2.46528 l -1.84589,-0.79408 -1.2308,0.19972 c -0.67694,0.10986 -1.62261,0.56524 -2.10149,1.01198 -0.47887,0.44673 -1.22496,1.50616 -1.65797,2.35429 l -0.78729,1.54206 0.98726,7.5041 0.98725,7.5041 0.006,5.32126 c 0.003,2.9267 -0.22519,6.91765 -0.50725,8.86878 -0.28206,1.95114 -1.25434,6.66046 -2.16063,10.46516 -1.05673,4.43632 -1.71489,8.09459 -1.83486,10.19878 l -0.18707,3.28113 0.60593,1.58661 c 0.33326,0.87265 1.08562,1.99026 1.67192,2.48358 l 1.06598,0.89697 h 1.93404 1.93402 l 2.18545,-1.10321 c 1.20199,-0.60676 2.63528,-1.43578 3.18508,-1.84227 l 0.99963,-0.73906 0.41189,0.41188 0.41188,0.41188 -0.45416,1.51908 c -0.24978,0.83549 -1.25374,3.27509 -2.23101,5.42134 -0.97726,2.14624 -2.78657,6.33512 -4.02069,9.3086 -1.23411,2.97349 -2.72592,7.08803 -3.31513,9.14344 -0.58921,2.05539 -1.25557,5.1218 -1.48078,6.81423 -0.22522,1.69241 -0.32701,4.76159 -0.2262,6.82036 0.1051,2.14645 0.50963,4.95388 0.94831,6.58126 0.42074,1.56091 1.22167,3.8242 1.77984,5.02953 0.55817,1.20533 1.6468,3.12099 2.41916,4.25701 0.77237,1.13603 2.20023,2.80896 3.17303,3.71764 0.97279,0.90869 2.46985,2.01307 3.3268,2.45418 0.85694,0.44112 2.43609,1.09551 3.50921,1.45418 l 1.95113,0.65215 2.48326,-0.12365 2.48326,-0.12364 z M 69.769828,331.03769 c 0,-0.17649 0.845737,-0.79819 1.879416,-1.38157 1.03369,-0.58337 2.396344,-1.49563 3.028134,-2.02725 0.63179,-0.53161 1.42079,-1.46637 1.753347,-2.07725 l 0.60464,-1.11069 -3.55e-4,-3.90226 -3.66e-4,-3.90226 -0.619806,-1.785 c -0.340893,-0.98175 -1.111845,-2.38191 -1.713204,-3.11148 -0.60137,-0.72956 -1.597855,-1.58792 -2.214412,-1.90747 -0.616558,-0.31956 -1.679747,-0.70979 -2.362643,-0.86719 -0.691477,-0.15938 -2.239656,-0.12892 -3.494034,0.0687 -1.238824,0.19519 -3.2343,0.80309 -4.43439,1.3509 -1.20009,0.54781 -4.645145,2.55743 -7.655664,4.46583 -3.010519,1.90841 -7.400565,4.4119 -9.755659,5.56332 -2.50124,1.22287 -5.181053,2.25909 -6.443889,2.49171 -1.189049,0.21902 -2.585882,0.29182 -3.104073,0.16177 -0.518192,-0.13009 -0.942164,-0.37717 -0.942164,-0.5491 0,-0.17195 0.798678,-0.50422 1.774853,-0.7384 0.976165,-0.23418 1.867921,-0.57637 1.981663,-0.76042 0.113753,-0.18406 -0.0067,-0.59305 -0.26715,-0.90889 -0.260687,-0.31583 -1.112533,-0.85349 -1.892986,-1.1948 -0.780452,-0.34132 -2.696109,-0.72927 -4.257014,-0.86213 -1.560906,-0.13285 -4.0185,-0.47744 -5.461306,-0.76574 -1.442818,-0.28831 -4.076846,-1.05117 -5.853395,-1.69525 -1.776561,-0.64409 -4.045373,-1.56527 -5.041813,-2.04705 -0.996441,-0.48179 -2.832279,-1.49061 -4.079639,-2.24182 -1.2473606,-0.75122 -3.0944166,-1.97039 -4.1045716,-2.70927 -1.010154,-0.73889 -1.938626,-1.50843 -2.063266,-1.71011 -0.124639,-0.20167 0.588022,-0.0456 1.583709,0.34688 l 1.81034,0.71357 3.0909466,-0.008 3.090937,-0.008 1.488181,-0.67563 c 0.8185,-0.37159 2.522991,-1.71045 3.787767,-2.97521 l 2.299575,-2.29958 1.424537,-2.95908 c 0.78349,-1.6275 1.823255,-4.15636 2.310583,-5.61971 0.487329,-1.46335 1.378963,-5.29368 1.981419,-8.51184 0.602456,-3.21815 1.18978,-7.20911 1.305152,-8.86878 0.115383,-1.65967 0.02317,-5.09287 -0.20488,-7.62934 -0.228061,-2.53647 -0.894317,-8.50002 -1.480576,-13.25231 -0.586249,-4.7523 -1.016074,-9.22217 -0.955168,-9.93303 l 0.110749,-1.2925 0.798733,3.25134 c 0.439315,1.78824 1.21795,4.50209 1.73031,6.03077 0.51235,1.52868 1.560085,4.21618 2.328288,5.9722 0.768203,1.75602 1.972771,4.22827 2.67682,5.4939 0.704048,1.26563 1.991362,3.06155 2.860702,3.99095 1.028601,1.09966 1.875215,1.68981 2.424159,1.68981 0.565673,0 1.067159,-0.3677 1.52236,-1.11621 0.373342,-0.61392 0.931898,-2.17039 1.241241,-3.45883 0.309343,-1.28843 0.715611,-3.85917 0.90282,-5.71274 0.18722,-1.85358 0.439514,-8.79784 0.560673,-15.43168 0.140648,-7.7012 0.07694,-13.92112 -0.176278,-17.20545 -0.218106,-2.82914 -0.545951,-14.88181 -0.728559,-26.78371 -0.182597,-11.90191 -0.424704,-22.43802 -0.538025,-23.41358 -0.113321,-0.97557 -0.378564,-2.89123 -0.58943,-4.25702 -0.210855,-1.36579 -0.686566,-3.0819 -1.057114,-3.81357 l -0.673739,-1.33032 h -0.834486 c -0.531994,0 -1.357201,0.56708 -2.276483,1.56438 -0.793091,0.86041 -1.844208,2.35811 -2.335804,3.32824 -0.491596,0.97012 -1.210411,3.33918 -1.597345,5.26458 -0.386945,1.9254 -0.752993,5.12681 -0.813444,7.11425 -0.06042,1.98745 -0.232008,3.49366 -0.381236,3.34715 -0.149228,-0.14651 -0.780131,-3.0497 -1.40201,-6.45153 l -1.130692,-6.18524 -0.01696,-9.04615 -0.01696,-9.04616 0.82667,-3.90226 c 0.454669,-2.14625 1.276949,-5.81792 1.82729,-8.15928 0.550341,-2.34136 1.112755,-5.78025 1.2498,-7.64198 l 0.249179,-3.38497 -0.547669,-0.45453 -0.547669,-0.45452 -2.149105,0.55057 c -1.181998,0.30281 -2.784287,0.87463 -3.560638,1.27069 -0.776351,0.39606 -3.190921,2.40173 -5.365734,4.45703 -2.174803,2.05531 -4.034098,3.65702 -4.131766,3.55936 -0.09767,-0.0977 0.614308,-1.18523 1.582158,-2.4168 0.96785,-1.23156 3.25431,-4.47098 5.081012,-7.19868 1.826714,-2.72772 4.308654,-6.23658 5.51544,-7.79749 1.206774,-1.5609 3.655345,-5.07294 5.441251,-7.80452 1.785918,-2.73158 4.343219,-7.12163 5.682882,-9.75566 1.339673,-2.63403 4.057666,-8.46081 6.039994,-12.948417 1.982317,-4.487603 4.562533,-9.973874 5.733811,-12.191715 1.171288,-2.217842 3.176963,-5.729879 4.457083,-7.804527 1.280109,-2.074648 3.758257,-5.877943 5.506981,-8.451766 1.74872,-2.573313 4.881174,-6.803722 6.960991,-9.400398 2.079818,-2.596676 5.457903,-6.457627 7.506846,-8.579893 2.048954,-2.122266 5.141033,-5.046915 6.871298,-6.499221 1.730266,-1.452306 4.204656,-3.321329 5.498644,-4.153386 1.293988,-0.832057 3.167906,-1.997253 4.164247,-2.589325 l 1.811537,-1.076494 -2.037281,2.170896 c -1.120514,1.193994 -3.57057,3.816803 -5.444577,5.828464 -1.873995,2.011662 -4.073331,4.798007 -4.887396,6.191877 -0.814066,1.393871 -2.077069,3.910668 -2.806692,5.592884 -0.729613,1.682216 -2.123175,5.52085 -3.09679,8.530299 -0.973615,3.009449 -2.224179,7.626838 -2.779032,10.260866 l -1.008812,4.789142 0.0055,6.740273 0.0055,6.74027 0.621069,2.460344 c 0.341581,1.353177 1.1223,3.47848 1.734922,4.722892 0.6563,1.333155 1.757836,2.829415 2.681575,3.642525 0.862256,0.75898 2.242693,1.70671 3.067645,2.10606 0.97867,0.47377 2.209412,0.7261 3.541537,0.7261 h 2.041626 l 2.255564,-1.60954 c 1.240565,-0.88525 2.745829,-2.16791 3.345015,-2.85035 0.599197,-0.68245 1.089452,-1.457636 1.089452,-1.722647 0,-0.264999 0.234048,-0.571637 0.52011,-0.68141 l 0.52011,-0.199581 -0.191633,1.137199 c -0.105427,0.625449 -1.248081,3.251809 -2.539298,5.836349 l -2.347666,4.69915 -0.150137,3.14024 -0.150137,3.14023 0.576082,1.98168 c 0.372378,1.28091 0.916988,2.24983 1.540109,2.73997 l 0.964014,0.75829 2.13691,-0.2285 c 1.175313,-0.12568 2.935112,-0.60867 3.910678,-1.0733 0.975566,-0.46464 2.906846,-1.80618 4.291726,-2.98123 l 2.51797,-2.13643 1.10333,-2.07005 c 0.60682,-1.13853 1.20977,-2.73574 1.33987,-3.54936 0.13011,-0.81362 0.44495,-1.65226 0.69967,-1.86366 l 0.46312,-0.38435 0.37948,0.70908 c 0.20873,0.39001 0.3795,1.12966 0.3795,1.64369 0,0.51403 0.39645,2.4986 0.88101,4.41015 0.48454,1.91157 1.62252,5.45253 2.52881,7.86882 0.9063,2.41629 2.24924,5.59054 2.98431,7.05389 0.73506,1.46335 2.3229,4.15997 3.52851,5.99248 1.2056,1.83252 4.45035,6.30239 7.21056,9.93303 2.7602,3.63066 7.01103,9.1554 9.44627,12.27721 2.43525,3.12181 6.33108,8.23023 8.65741,11.35204 2.32632,3.12181 5.86767,8.15041 7.86965,11.17466 2.00199,3.02426 5.04693,7.97304 6.76653,10.99729 1.71961,3.02426 4.74553,8.93086 6.72426,13.1258 1.97873,4.19493 4.41218,9.5428 5.40766,11.88416 0.99547,2.34136 2.38826,6.17267 3.09508,8.51403 0.70682,2.34136 1.66308,5.77358 2.12504,7.62715 0.46195,1.85359 0.99996,4.56743 1.19559,6.03078 0.19562,1.46335 0.45362,3.65838 0.57334,4.87783 l 0.21767,2.2172 h -0.50811 c -0.27946,0 -0.92742,-0.85705 -1.4399,-1.90453 -0.5125,-1.04749 -1.4799,-2.44043 -2.14981,-3.09544 -0.66989,-0.655 -1.74597,-1.3822 -2.39127,-1.616 -0.64531,-0.23379 -2.1372,-0.43723 -3.31532,-0.45207 l -2.14202,-0.0269 -1.57776,0.79819 c -0.86778,0.439 -2.08399,1.46954 -2.70273,2.29009 -0.61873,0.82056 -1.76597,3.13531 -2.54944,5.1439 -0.78346,2.00859 -2.16798,6.04655 -3.07671,8.97325 -0.90874,2.9267 -1.86493,6.59837 -2.12485,8.15928 -0.25993,1.5609 -1.05498,4.75367 -1.76679,7.09502 -0.71181,2.34136 -1.82708,5.49726 -2.47839,7.01314 -0.6513,1.51586 -1.85016,3.92007 -2.66412,5.3427 -0.81397,1.42263 -2.29766,3.69442 -3.29708,5.04841 -0.99943,1.354 -4.1116,4.7353 -6.91594,7.51401 -2.80433,2.77871 -6.99809,6.48197 -9.31949,8.22945 -2.32138,1.7475 -6.14427,4.31554 -8.4953,5.70676 -2.35104,1.39123 -6.54749,3.61989 -9.32545,4.95259 -2.77798,1.3327 -6.64724,3.06035 -8.59837,3.83922 -1.951136,0.77888 -5.463173,2.25036 -7.804531,3.26995 -2.341358,1.01958 -6.811223,3.18164 -9.933034,4.80457 -3.12181,1.62293 -7.003919,3.43865 -8.626917,4.03491 -1.622998,0.59627 -3.498745,1.08413 -4.168327,1.08413 -0.669582,0 -1.217428,-0.14441 -1.217428,-0.3209 z m 35.829872,-69.95232 2.30588,-0.80049 1.97461,-1.9781 c 1.08603,-1.08794 2.63649,-3.09555 3.44545,-4.46134 0.80897,-1.36579 2.02033,-4.16189 2.69191,-6.21355 0.67158,-2.05167 1.65272,-5.80317 2.18031,-8.33666 0.62386,-2.99575 1.0249,-6.23599 1.14699,-9.26714 0.11206,-2.78199 0.0111,-6.07107 -0.25083,-8.15928 -0.24121,-1.92417 -0.82803,-5.01506 -1.30404,-6.86864 -0.47601,-1.85357 -1.64999,-4.96651 -2.60884,-6.91765 -0.95885,-1.95113 -2.54807,-4.60671 -3.5316,-5.90128 -0.98353,-1.29459 -3.11597,-3.60934 -4.73876,-5.14389 -1.62278,-1.53457 -4.51552,-4.06723 -6.4283,-5.62813 -1.912796,-1.56091 -5.220885,-4.32834 -7.351321,-6.14987 -2.130436,-1.82153 -4.093419,-3.65736 -4.362198,-4.07964 l -0.488692,-0.76778 0.535275,-2.48326 0.535264,-2.48326 -0.193982,-5.14389 c -0.106647,-2.82914 -0.426777,-5.98042 -0.711299,-7.00283 -0.284532,-1.02243 -0.971951,-2.83613 -1.527603,-4.03045 l -1.010276,-2.1715 -2.021306,7.22321 c -1.111723,3.97276 -2.414924,8.81958 -2.896011,10.77071 -0.481087,1.95113 -1.12771,4.82462 -1.436942,6.38552 -0.309221,1.56091 -0.801195,4.66371 -1.093255,6.8951 -0.292071,2.2314 -0.531029,5.08032 -0.531029,6.33093 0,1.25061 0.260465,3.16979 0.578799,4.26484 0.326338,1.12255 1.010753,2.42296 1.569098,2.98129 l 0.990288,0.99029 h 1.193904 c 0.656655,0 1.768024,-0.29269 2.469722,-0.65043 0.701698,-0.35775 2.406256,-1.66257 3.787923,-2.89961 1.381656,-1.23703 3.331513,-3.25907 4.333009,-4.49344 1.001496,-1.23436 1.967749,-2.2443 2.147242,-2.2443 0.179493,0 0.21927,0.439 0.08847,0.97556 -0.130859,0.53656 -1.186499,3.2105 -2.34587,5.94209 -1.159361,2.73158 -3.217771,7.68036 -4.574251,10.99728 -1.35648,3.31693 -3.029343,7.86661 -3.717472,10.11041 -0.688128,2.2438 -1.633895,5.76526 -2.10169,7.82546 -0.467806,2.06021 -1.09474,5.37164 -1.393197,7.35876 -0.298467,1.98712 -0.542658,4.97764 -0.542658,6.64561 0,1.66797 0.251119,4.2484 0.558035,5.73429 0.306915,1.48588 0.876379,3.55248 1.265475,4.59242 0.389095,1.03994 1.215533,2.65006 1.836536,3.57802 0.703981,1.05196 1.863708,2.12586 3.080227,2.85224 1.073122,0.64076 2.589684,1.33934 3.370137,1.55239 0.780452,0.21305 2.61629,0.60136 4.079638,0.86291 1.463349,0.26154 4.017558,0.41525 5.67602,0.34156 1.90102,-0.0845 3.86755,-0.42981 5.32127,-0.93448 z"
       id="path1" />
  </g>
</svg>
