<?xml version="1.0" encoding="UTF-8" standalone="no"?>
<!-- Created with Inkscape (http://www.inkscape.org/) -->

<svg
   width="512"
   height="512"
   viewBox="0 0 512 512"
   version="1.1"
   id="svg1"
   inkscape:version="1.3 (0e150ed, 2023-07-21)"
   sodipodi:docname="destroyer-favicon.svg"
   xmlns:inkscape="http://www.inkscape.org/namespaces/inkscape"
   xmlns:sodipodi="http://sodipodi.sourceforge.net/DTD/sodipodi-0.dtd"
   xmlns="http://www.w3.org/2000/svg"
   xmlns:svg="http://www.w3.org/2000/svg">
  <sodipodi:namedview
     id="namedview1"
     pagecolor="#ffffff"
     bordercolor="#000000"
     borderopacity="0.25"
     inkscape:showpageshadow="2"
     inkscape:pageopacity="0.0"
     inkscape:pagecheckerboard="0"
     inkscape:deskcolor="#d1d1d1"
     inkscape:document-units="px"
     inkscape:zoom="0.67144826"
     inkscape:cx="223.3977"
     inkscape:cy="192.86668"
     inkscape:window-width="1512"
     inkscape:window-height="762"
     inkscape:window-x="0"
     inkscape:window-y="38"
     inkscape:window-maximized="0"
     inkscape:current-layer="layer1" />
  <defs
     id="defs1" />
  <g
     inkscape:label="Layer 1"
     inkscape:groupmode="layer"
     id="layer1">
    <path
       id="path1"
       style="fill:#000000;stroke-width:1.87453"
       d="m 257.02734,3.203125 -3.0625,1.8203125 c -1.68452,1.001114 -4.853,2.9720105 -7.04101,4.3789063 -2.188,1.4069032 -6.37314,4.5677932 -9.29883,7.0234372 -2.9257,2.455661 -8.15261,7.399823 -11.61719,10.988281 -3.46436,3.588476 -9.17659,10.117178 -12.69336,14.507813 -3.51656,4.390637 -8.81458,11.545371 -11.77148,15.896484 -2.95691,4.351994 -7.14602,10.783075 -9.31055,14.291016 -2.16455,3.507941 -5.55659,9.445228 -7.53711,13.195313 -1.98052,3.750064 -6.34342,13.027317 -9.69531,20.615232 -3.35191,7.58789 -7.94763,17.44084 -10.21289,21.89453 -2.26523,4.45387 -6.58957,11.87728 -9.60938,16.4961 -3.01958,4.61863 -7.16063,10.55811 -9.20117,13.19726 -2.04054,2.63933 -6.23737,8.57132 -9.32617,13.1836 -3.08876,4.61208 -6.9533,10.08943 -8.58984,12.17187 -1.63652,2.08246 -2.84099,3.9227 -2.67578,4.08789 0.16515,0.16514 3.30913,-2.54421 6.98632,-6.01953 3.67738,-3.4753 7.75953,-6.86546 9.07227,-7.53516 1.31272,-0.66952 4.02301,-1.63641 6.02148,-2.14843 l 3.63282,-0.93164 0.92578,0.76757 0.92773,0.76954 -0.42187,5.72265 c -0.23173,3.14799 -1.18289,8.96289 -2.11328,12.92188 -0.93057,3.95882 -2.32106,10.16796 -3.08985,13.79687 l -1.39844,6.59766 0.0293,15.29687 0.0293,15.29688 1.91211,10.45898 c 1.05154,5.75213 2.1168,10.66048 2.36914,10.90821 0.25231,0.24774 0.54244,-2.2996 0.64453,-5.66016 0.10222,-3.36057 0.72265,-8.77365 1.37695,-12.0293 0.65424,-3.25547 1.87013,-7.26198 2.70117,-8.90234 0.83124,-1.64039 2.60817,-4.17227 3.94922,-5.62695 1.5544,-1.68634 2.95005,-2.64454 3.84961,-2.64454 h 1.41016 l 1.13867,2.24805 c 0.62656,1.23718 1.43057,4.13982 1.78711,6.44922 0.35654,2.30941 0.80643,5.54769 0.99805,7.19727 0.19161,1.64939 0.60139,19.46531 0.91015,39.58984 0.30877,20.1245 0.86168,40.50546 1.23047,45.28906 0.4281,5.55346 0.53666,16.07005 0.29883,29.0918 -0.20487,11.21695 -0.63264,22.95955 -0.94922,26.09375 -0.31654,3.1342 -1.00232,7.48156 -1.52539,9.66016 -0.52308,2.17845 -1.4683,4.80958 -2.09961,5.84765 -0.76968,1.26566 -1.61773,1.88867 -2.57422,1.88867 -0.92822,0 -2.35857,-0.99802 -4.09765,-2.85742 -1.46997,-1.57152 -3.6476,-4.60799 -4.83789,-6.74805 -1.19046,-2.13987 -3.22643,-6.32177 -4.5254,-9.29101 -1.29877,-2.96926 -3.07117,-7.51283 -3.9375,-10.09766 -0.86617,-2.58465 -2.18296,-7.17371 -2.92578,-10.19726 l -1.35156,-5.49805 -0.18555,2.18555 c -0.10297,1.202 0.622,8.76141 1.61329,16.79687 0.99112,8.03544 2.11828,18.1193 2.5039,22.40821 0.38563,4.28873 0.54276,10.09406 0.34766,12.90039 -0.19508,2.80614 -1.18835,9.55453 -2.20703,14.99609 -1.01869,5.44138 -2.52756,11.91821 -3.35157,14.39258 -0.82385,2.47437 -2.58146,6.75002 -3.90625,9.50195 l -2.4082,5.00391 -3.88867,3.88672 c -2.13859,2.1384 -5.02032,4.40294 -6.4043,5.03125 l -2.51758,1.14257 -5.22656,0.0137 -5.22656,0.0137 -3.06055,-1.20703 c -1.6836,-0.66364 -2.88847,-0.92695 -2.67773,-0.58594 0.21075,0.34102 1.7802,1.64124 3.48828,2.89062 1.70805,1.24938 4.83226,3.31181 6.94141,4.58204 2.10898,1.27004 5.21355,2.97634 6.89843,3.79101 1.68488,0.81463 5.52159,2.37185 8.52539,3.46094 3.00396,1.08908 7.45683,2.37969 9.89649,2.86719 2.43962,0.48749 6.59524,1.07028 9.23437,1.29492 2.63934,0.22465 5.87955,0.8799 7.19922,1.45703 1.31966,0.57712 2.75842,1.4855 3.19922,2.01953 0.43943,0.53405 0.64549,1.22588 0.45313,1.53711 -0.19232,0.31121 -1.70099,0.8892 -3.35157,1.28516 -1.65062,0.39598 -3,0.95925 -3,1.25 0,0.29071 0.71559,0.70776 1.5918,0.92773 0.8762,0.2199 3.2375,0.0969 5.24805,-0.27344 2.13516,-0.39334 6.66732,-2.14515 10.89648,-4.21289 3.98222,-1.94693 11.40562,-6.17932 16.4961,-9.40625 5.09029,-3.22671 10.9161,-6.62645 12.94531,-7.55273 2.02924,-0.9263 5.4035,-1.95317 7.49804,-2.28321 2.12103,-0.33419 4.73899,-0.38668 5.90821,-0.11718 1.15471,0.26614 2.95161,0.92645 3.99414,1.46679 1.04254,0.54033 2.72729,1.991 3.74414,3.22461 1.01683,1.23362 2.32201,3.60169 2.89844,5.26172 l 1.04687,3.01758 v 6.59961 l 0.002,6.59766 -1.02343,1.8789 c -0.56233,1.03293 -1.89656,2.61283 -2.96485,3.51172 -1.0683,0.89891 -3.37127,2.44149 -5.11914,3.42773 -1.74712,0.98605 -3.17464,2.03704 -3.17578,2.33594 0,0.29843 0.92641,0.54297 2.0586,0.54297 1.13201,0 4.30255,-0.8238 7.04687,-1.83203 2.74432,-1.00822 9.30942,-4.08002 14.58789,-6.82422 5.27865,-2.74421 12.8361,-6.39905 16.79492,-8.12305 3.95898,-1.72384 9.8981,-4.21229 13.19727,-5.52929 3.29898,-1.31699 9.84196,-4.23873 14.53906,-6.49219 4.69724,-2.25346 11.79222,-6.02061 15.76758,-8.37305 3.97516,-2.35222 10.4402,-6.69555 14.36523,-9.65039 3.92524,-2.95462 11.01598,-9.21769 15.75782,-13.91601 4.74167,-4.69851 10.00537,-10.41562 11.69531,-12.70508 1.68992,-2.28946 4.19788,-6.12965 5.57422,-8.53516 1.37632,-2.40553 3.40458,-6.47218 4.50586,-9.03515 1.1013,-2.5632 2.98585,-7.89843 4.18945,-11.85743 1.2036,-3.95879 2.54875,-9.35891 2.98828,-11.99804 0.43948,-2.63934 2.05521,-8.84814 3.5918,-13.79688 1.53657,-4.94856 3.87838,-11.77573 5.20312,-15.17187 1.32478,-3.39631 3.26435,-7.3098 4.31055,-8.69727 1.04622,-1.38746 3.10299,-3.13091 4.57031,-3.87304 l 2.66797,-1.34961 3.62109,0.0449 c 1.99207,0.0251 4.51629,0.37031 5.60743,0.76562 1.09114,0.39533 2.91024,1.62506 4.04297,2.73242 1.13256,1.10754 2.76818,3.46319 3.63476,5.23438 0.86656,1.77119 1.96301,3.21875 2.43555,3.21875 h 0.85742 l -0.36719,-3.74805 c -0.20243,-2.06197 -0.63797,-5.77385 -0.96875,-8.24804 -0.33078,-2.47438 -1.24233,-7.06305 -2.02344,-10.19727 -0.78094,-3.1342 -2.39663,-8.93768 -3.59179,-12.89648 -1.19516,-3.959 -3.55115,-10.4375 -5.23438,-14.39649 -1.68325,-3.95882 -5.79675,-13.00269 -9.14258,-20.0957 -3.34565,-7.09302 -8.46341,-17.07984 -11.37109,-22.19336 -2.90767,-5.1137 -8.05625,-13.48217 -11.44141,-18.5957 -3.38496,-5.11369 -9.37307,-13.61588 -13.30664,-18.89454 -3.93341,-5.27847 -10.52092,-13.91665 -14.63867,-19.19531 -4.11756,-5.27846 -11.30562,-14.62087 -15.97265,-20.75976 -4.66723,-6.13904 -10.15286,-13.69634 -12.19141,-16.79493 -2.03856,-3.09841 -4.72388,-7.65844 -5.9668,-10.13281 -1.24293,-2.47437 -3.51442,-7.84221 -5.04687,-11.92773 -1.53245,-4.08569 -3.45608,-10.07455 -4.27539,-13.30664 -0.81934,-3.23223 -1.49024,-6.58805 -1.49024,-7.45703 0,-0.86919 -0.28768,-2.11983 -0.64062,-2.7793 l -0.64258,-1.19727 -0.7832,0.64844 c -0.43071,0.35746 -0.9636,1.77677 -1.1836,3.15234 -0.21999,1.37575 -1.23956,4.07683 -2.26562,6.00196 l -1.86524,3.5 -4.25781,3.61133 c -2.34169,1.98671 -5.60627,4.25535 -7.25586,5.04101 -1.64957,0.78564 -4.62595,1.60193 -6.61328,1.81445 l -3.61328,0.38672 -1.62891,-1.28125 c -1.05362,-0.82877 -1.97581,-2.46692 -2.60547,-4.63281 l -0.97461,-3.35156 0.25391,-5.31055 0.25391,-5.30859 3.9707,-7.94532 c 2.18333,-4.37002 4.11469,-8.81156 4.29297,-9.86914 l 0.32422,-1.92382 -0.87891,0.33789 c -0.4837,0.18561 -0.87891,0.70425 -0.87891,1.15234 10e-6,0.44811 -0.83073,1.75816 -1.84374,2.91211 -1.01316,1.15393 -3.55662,3.32345 -5.6543,4.82031 l -3.81446,2.72071 h -3.45312 c -2.25247,0 -4.33346,-0.42547 -5.98828,-1.22657 -1.3949,-0.67526 -3.72951,-2.27737 -5.1875,-3.56054 -1.56194,-1.37489 -3.42365,-3.90593 -4.5332,-6.16016 -1.03588,-2.10416 -2.35603,-5.69824 -2.9336,-7.98633 l -1.05078,-4.160154 -0.01,-11.396485 -0.008,-11.396484 1.70508,-8.097656 c 0.9382,-4.453794 3.05295,-12.26299 4.69922,-17.351563 1.6463,-5.088574 4.00264,-11.57943 5.23633,-14.423828 1.23371,-2.844397 3.3696,-7.100195 4.74609,-9.457031 1.37651,-2.356852 5.09512,-7.067312 8.26367,-10.46875 3.16876,-3.401455 7.3104,-7.836586 9.20508,-9.855469 z m -15.14062,206.658205 1.70703,3.67187 c 0.93956,2.01946 2.10285,5.08564 2.58398,6.81446 0.48109,1.72862 1.0228,7.05818 1.20313,11.84179 l 0.32812,8.69727 -0.90625,4.19922 -0.90429,4.19922 0.82617,1.29687 c 0.45448,0.71403 3.77267,3.81842 7.375,6.89844 3.60232,3.08001 9.19732,7.7591 12.43164,10.39844 3.23431,2.63914 8.12523,6.92295 10.86914,9.51757 2.74396,2.59476 6.35062,6.50826 8.01367,8.69727 1.66301,2.18899 4.34943,6.67936 5.97071,9.97852 1.62121,3.29899 3.60725,8.56307 4.41211,11.69726 0.80478,3.13421 1.7972,8.36167 2.20507,11.61524 0.44292,3.53076 0.61332,9.09087 0.42383,13.79492 -0.20644,5.12518 -0.88456,10.60442 -1.93945,15.66992 -0.89209,4.28387 -2.55192,10.62849 -3.6875,14.09766 -1.13555,3.46896 -3.18294,8.19663 -4.55078,10.50585 -1.36786,2.30942 -3.98991,5.70357 -5.82617,7.54297 l -3.33985,3.34571 -3.89844,1.35351 c -2.45797,0.85334 -5.78376,1.4372 -8.99804,1.58008 -2.80428,0.1246 -7.1233,-0.13589 -9.59766,-0.57812 -2.47434,-0.44226 -5.57881,-1.09874 -6.89844,-1.45899 -1.31965,-0.36024 -3.88273,-1.54155 -5.69726,-2.625 -2.05698,-1.22823 -4.01865,-3.04368 -5.20899,-4.82226 -1.05006,-1.56908 -2.44755,-4.29236 -3.10547,-6.05079 -0.65782,-1.75826 -1.61973,-5.25314 -2.13867,-7.76562 -0.51896,-2.51248 -0.94531,-6.87514 -0.94531,-9.69531 0,-2.82037 0.4133,-7.87632 0.91797,-11.23633 0.50466,-3.36001 1.56446,-8.95976 2.35547,-12.44336 0.79099,-3.48359 2.39116,-9.43857 3.55469,-13.23242 1.16346,-3.79403 3.99151,-11.48714 6.28515,-17.09571 2.29367,-5.60839 5.77403,-13.97688 7.73438,-18.5957 1.96025,-4.61865 3.74552,-9.13961 3.96679,-10.04687 0.22111,-0.90728 0.15506,-1.65039 -0.14843,-1.65039 -0.30349,0 -1.93757,1.70776 -3.63086,3.79492 -1.69341,2.08719 -4.99191,5.50792 -7.32813,7.59961 -2.33623,2.09153 -5.21781,4.29742 -6.4043,4.90234 -1.1864,0.60491 -3.06546,1.09961 -4.17578,1.09961 h -2.01953 l -1.67383,-1.67383 c -0.9441,-0.94407 -2.10054,-3.14307 -2.65234,-5.04101 -0.53827,-1.85161 -0.98047,-5.09841 -0.98047,-7.21289 0,-2.11464 0.40458,-6.93219 0.89844,-10.70508 0.49383,-3.77305 1.32675,-9.01888 1.84961,-11.65821 0.52288,-2.63914 1.61626,-7.49771 2.42969,-10.79687 0.81338,-3.29916 3.01668,-11.49555 4.89648,-18.21289 z m 142.39062,41.72656 c -8.9e-4,0.006 -0.0188,0.0907 -0.0195,0.0957 -0.10057,0.65981 0.0747,1.2907 0.38867,1.40235 0.0445,0.0158 0.23436,-0.46826 0.30274,-0.51953 -0.22842,-0.32055 -0.44406,-0.65584 -0.67188,-0.97852 z m 0.53516,0.50195 c 10e-4,0.01 0.18099,0.29972 0.20898,0.35157 0.005,-0.004 0.0166,-0.0286 0.0215,-0.0332 -0.0606,-0.0809 -0.23239,-0.3349 -0.23047,-0.31836 z" />
  </g>
</svg>
